<?xml version="1.0" encoding="UTF-8"?>
<svg xmlns="http://www.w3.org/2000/svg" height="456.12" width="546.49" version="1.1" viewBox="0 0 15423.243 12872.761">
<defs>
  <linearGradient id="lg1" y2="285.48" gradientUnits="userSpaceOnUse" x2="207.53" gradientTransform="matrix(28.222224,0,0,28.222224,-3e-4,0)" y1="275.82" x1="134.1">
    <stop style="stop-color:#343735;stop-opacity:0.0;" offset="0"/>
    <stop style="stop-color:#343735;stop-opacity:0.8;" offset="1"/>
  </linearGradient>
  <linearGradient id="lg2" y2="116.31" gradientUnits="userSpaceOnUse" x2="343.53" gradientTransform="matrix(28.222224,0,0,28.222224,-3e-4,0)" y1="67.012" x1="340.25">
    <stop style="stop-color:#343735;stop-opacity:0.0;" offset="0"/>
    <stop style="stop-color:#343735;stop-opacity:0.8;" offset="1"/>
  </linearGradient>
</defs>
<path style="fill:#3e4095;" d="m1622.1,8748.8-1128,2555,2706-2032,0,0c809,159,1739,226,2658,208,245,669,629,1217,1159,1506,1339,729,3887,847,5781,429l1966,1458-673-1911c1400-802,1897-4617,503-6318-594-725-1799-1195-3124-1373-113-533-297-1067-562-1583-995-1938-7241-2279-9417-647-2095,1572-1919,6586,130,7709zm4424-6978,19,648c208,33,407,93,593,175l368-536c217,106,419,236,604,388l-338,561c152,137,286,294,399,466l608-256c124,203,224,422,299,652l-597,294c51,192,79,393,81,601l661,115c-6,245-41,483-102,710l-674-76c-62,193-148,375-254,543l503,462c-135,199-293,381-471,542l-533-434c-152,126-320,233-501,319l175,668c-218,93-449,161-689,202l-215-658c-97,12-196,18-296,18s-199-6-296-18l-215,658c-240-40-471-109-689-202l175-668c-181-85-349-193-501-319l-533,434c-177-161-335-343-471-542l503-462c-106-168-192-350-254-542l-674,76c-61-227-96-465-102-710l661-115c1-208,30-409,81-601l-597-294c74-231,175-449,299-652l608,256c113-172,247-329,399-466l-338-561c184-152,387-282,604-388l368,537c186-83,385-142,593-175l19-648c118-14,238-21,359-21,122,0,241,7,359,21zm-359,1446c865,0,1567,700,1567,1564s-702,1564-1567,1564-1566-700-1566-1564,701-1564,1566-1564zm4224,1627,193,608c42-3,85-4,128-4,165,0,324,21,477,60l297-568c211,67,411,161,597,279l-245,594c164,119,308,263,427,427l596-245c116,182,210,382,278,596l-569,297c39,152,60,312,60,476,0,43-2,85-4,128l609,193c-29,220-87,433-171,635l-618-136c-89,187-207,357-349,505l337,530c-160,147-341,274-540,377l-380-493c-186,86-388,142-600,165l-82,612c-223,10-444-10-656-58l26-613c-206-57-398-147-569-264l-452,412c-174-133-331-289-466-465l414-452c-117-172-207-363-264-569l-614,26c-49-220-67-440-58-655l613-82c22-212,79-414,165-599l-493-379c102-195,229-376,377-539l531,337c148-142,318-260,506-348l-136-618c101-41,205-77,313-106s216-50,324-65zm321,1313c667,0,1208,540,1208,1206s-541,1206-1208,1206-1208-540-1208-1206,541-1206,1208-1206z"/>
<path style="fill:url(#lg2);" d="m7096.1,1264.7,0,829.03c190.5,99.112,368.67,216.41,533.58,351.9l-337.78,560.92c152,137,286.52,294.55,399.52,466.55l607.66-256.65c36.618,59.947,70.781,121.72,103.19,184.33,942.9-232.19,2040.3-270.32,3065.6-133.17-114-533-297.68-1067.1-562.68-1583.1-112.23-203.74-203.38-305.39-320.14-419.81z"/>
<path style="fill:url(#lg1);" d="m4160.1,6626-209.9,171.1-288.4,2553.2c751.99,101.07,1525.4,160.61,2195.2,128.76-252.5-690.17-355.23-1509.8-313.97-2308.9-51.46-2.995-102.06-6.9797-152.58-13.229l-215.2,657.9c-240-40-470.8-108.97-688.8-201.97l174.62-668.51c-181-85-348.94-192.38-500.94-318.38z"/>
</svg>
