<?xml version="1.0" encoding="utf-8"?>
<svg xmlns="http://www.w3.org/2000/svg" version="1.1" width="80px" height="80px" viewBox="-16 -62 580 580">
<filter id="s">
  <feGaussianBlur stdDeviation="14.5" result="a" in="SourceAlpha"/>
  <feOffset in="a" result="b" dx="7.25" dy="7.25"/>
  <feColorMatrix in="b" result="c" values="1 0 0 0 0 0 1 0 0 0 0 0 1 0 0 0 0 0 .3 0" type="matrix"/>
  <feMerge>
    <feMergeNode in="c"/>
    <feMergeNode in="SourceGraphic"/>
  </feMerge>
</filter>
<path filter="url(#s)" fill="#3e4095" d="m51.48 310-39.97 90.53 95.88-72 0 0c28.67 5.63 61.62 8.01 94.18 7.37 8.68 23.7 22.29 43.12 41.07 53.36 47.44 25.83 137.73 30.01 204.84 15.2l69.66 51.66-23.85-67.71C542.89 359.99 560.5 224.81 511.11 164.54 490.06 138.85 447.37 122.2 400.42 115.89 396.42 97.01 389.9 78.09 380.51 59.8 345.25-8.86 123.94-20.95 46.83 36.88-27.4 92.58-21.16 270.24 51.44 310.03l0.04-0.04zM208.23 62.75l0.67 22.96c7.37 1.17 14.42 3.3 21.01 6.2l13.04-18.99c7.69 3.76 14.85 8.36 21.4 13.75l-11.98 19.88c5.39 4.85 10.13 10.42 14.14 16.51l21.54-9.07c4.39 7.19 7.94 14.95 10.59 23.1l-21.15 10.42c1.81 6.8 2.8 13.93 2.87 21.3l23.42 4.07c-0.21 8.68-1.45 17.11-3.61 25.16l-23.88-2.69c-2.2 6.84-5.24 13.29-9 19.24l17.82 16.37c-4.78 7.05-10.38 13.5-16.69 19.21L249.55 234.77c-5.39 4.46-11.34 8.26-17.75 11.3l6.2 23.67c-7.72 3.29-15.91 5.71-24.41 7.16l-7.62-23.32c-3.44 0.42-6.94 0.64-10.49 0.64-3.54 0-7.05-0.21-10.49-0.64l-7.62 23.32c-8.5-1.42-16.69-3.86-24.41-7.16l6.2-23.67c-6.41-3.01-12.37-6.84-17.75-11.3l-18.89 15.38c-6.27-5.71-11.87-12.15-16.69-19.21l17.82-16.37c-3.76-5.95-6.8-12.4-9-19.21l-23.88 2.69c-2.16-8.04-3.4-16.48-3.61-25.16l23.42-4.07c0.04-7.37 1.06-14.49 2.87-21.29L92.29 137.12c2.62-8.19 6.2-15.91 10.59-23.1l21.54 9.07c4-6.09 8.75-11.66 14.14-16.51L126.59 86.7c6.52-5.39 13.71-9.99 21.4-13.75l13.04 19.03c6.59-2.94 13.64-5.03 21.01-6.2l0.67-22.96c4.18-0.5 8.43-0.74 12.72-0.74 4.32 0 8.54 0.25 12.72 0.74l0.07-0.07zm-12.72 51.24c30.65 0 55.52 24.8 55.52 55.42 0 30.61-24.87 55.42-55.52 55.42-30.65 0-55.49-24.8-55.49-55.42 0-30.61 24.84-55.42 55.49-55.42zm149.67 57.65 6.84 21.54c1.49-0.11 3.01-0.14 4.54-0.14 5.85 0 11.48 0.74 16.9 2.13l10.52-20.13c7.48 2.37 14.56 5.7 21.15 9.89l-8.68 21.05c5.81 4.22 10.91 9.32 15.13 15.13l21.12-8.68c4.11 6.45 7.44 13.54 9.85 21.12l-20.16 10.52c1.38 5.39 2.13 11.06 2.13 16.87 0 1.52-0.07 3.01-0.14 4.54l21.58 6.84c-1.03 7.8-3.08 15.34-6.06 22.5l-21.9-4.82c-3.15 6.63-7.33 12.65-12.37 17.89l11.94 18.78c-5.67 5.21-12.08 9.71-19.13 13.36l-13.46-17.47c-6.59 3.05-13.75 5.03-21.26 5.85l-2.91 21.68c-7.9 0.36-15.73-0.35-23.24-2.05l0.92-21.72c-7.3-2.02-14.1-5.21-20.16-9.35l-16.02 14.6c-6.17-4.71-11.73-10.24-16.51-16.48l14.67-16.02c-4.15-6.09-7.33-12.86-9.35-20.16l-21.76 0.92c-1.74-7.79-2.37-15.59-2.06-23.21l21.72-2.91c0.78-7.51 2.8-14.67 5.85-21.22l-17.47-13.43c3.61-6.91 8.11-13.32 13.36-19.1l18.81 11.94c5.24-5.03 11.27-9.21 17.93-12.33l-4.82-21.9c3.58-1.45 7.26-2.73 11.09-3.76 3.83-1.03 7.65-1.77 11.48-2.3l-0.07 0.04zm11.37 46.52c23.63 0 42.8 19.13 42.8 42.73 0 23.6-19.17 42.73-42.8 42.73-23.63 0-42.8-19.13-42.8-42.73 0-23.6 19.17-42.73 42.8-42.73z"/>
<radialGradient id="g" gradientUnits="userSpaceOnUse" cy="339.2" cx="402.9" gradientTransform="matrix(0.999995,0.001036,3.69e-4,-0.355619,-6.124947,238.14014)" r="67.15">
  <stop offset="0" stop-color="#343735" stop-opacity="0.7"/>
  <stop offset="1" stop-color="#343735" stop-opacity="0"/>
</radialGradient>
<path fill="url(#g)" d="m245.44 44.81v29.38c6.75 3.51 13.06 7.67 18.91 12.47l-11.97 19.88c5.39 4.85 10.15 10.44 14.16 16.53l21.53-9.09c1.3 2.12 2.51 4.31 3.66 6.53 33.41-8.23 72.29-9.58 108.62-4.72-4.04-18.89-10.55-37.81-19.94-56.09-3.98-7.22-7.21-10.82-11.34-14.88H245.44z"/>
<radialGradient id="h" gradientUnits="userSpaceOnUse" cy="122.6" cx="209.6" gradientTransform="matrix(0.977317,-0.211756,-0.31232,-1.441461,37.057281,555.6543)" r="30.29">
  <stop offset="0" stop-color="#343735" stop-opacity="0.7"/>
  <stop offset="1" stop-color="#343735" stop-opacity="0"/>
</radialGradient>
<path fill="url(#h)" d="m141.4 234.78-7.44 6.06-10.22 90.47c26.65 3.58 54.05 5.69 77.78 4.56-8.95-24.46-12.59-53.5-11.12-81.81-1.82-0.11-3.62-0.25-5.41-0.47l-7.62 23.31c-8.5-1.42-16.68-3.86-24.41-7.16l6.19-23.69c-6.41-3.01-12.36-6.82-17.75-11.28l-9.7e-4 9.8e-4z"/>
</svg>
