<?xml version="1.0" encoding="UTF-8" standalone="no"?>
<svg
   xmlns:dc="http://purl.org/dc/elements/1.1/"
   xmlns:cc="http://creativecommons.org/ns#"
   xmlns:rdf="http://www.w3.org/1999/02/22-rdf-syntax-ns#"
   xmlns:svg="http://www.w3.org/2000/svg"
   xmlns="http://www.w3.org/2000/svg"
   xmlns:sodipodi="http://sodipodi.sourceforge.net/DTD/sodipodi-0.dtd"
   xmlns:inkscape="http://www.inkscape.org/namespaces/inkscape"
   width="825"
   height="600"
   id="svg2"
   version="1.1"
   inkscape:version="0.48.2 r9819"
   sodipodi:docname="placeholder.svg"
   inkscape:export-filename="/Users/jan/Projects/integracaoime/artwork/placeholder.png"
   inkscape:export-xdpi="60"
   inkscape:export-ydpi="60">
  <defs
     id="defs15" />
  <sodipodi:namedview
     pagecolor="#ffffff"
     bordercolor="#666666"
     borderopacity="1"
     objecttolerance="10"
     gridtolerance="10"
     guidetolerance="10"
     inkscape:pageopacity="0"
     inkscape:pageshadow="2"
     inkscape:window-width="1276"
     inkscape:window-height="756"
     id="namedview13"
     showgrid="false"
     fit-margin-top="0"
     fit-margin-left="0"
     fit-margin-right="0"
     fit-margin-bottom="0"
     inkscape:zoom="0.22425739"
     inkscape:cx="326.61867"
     inkscape:cy="261.30975"
     inkscape:window-x="4"
     inkscape:window-y="0"
     inkscape:window-maximized="0"
     inkscape:current-layer="g7" />
  <title
     id="title4">placeholder</title>
  <metadata
     id="metadata7">image/svg+xmlMan silhouetteMan silhouette people person head shoulders face<rdf:RDF>
  <cc:Work
     rdf:about="">
    <dc:format>image/svg+xml</dc:format>
    <dc:type
       rdf:resource="http://purl.org/dc/dcmitype/StillImage" />
    <dc:title>placeholder</dc:title>
  </cc:Work>
</rdf:RDF>
</metadata>
  <g
     id="g7"
     transform="translate(53.132152,-176.57253)">
    <title
       id="title9">Layer 1</title>
    <g
       id="layer1">
      <path
         id="path2396"
         d="m 45.42857,778.04663 c 0,-10.65234 17.738667,-102.20276 20.745197,-107.06744 1.07119,-1.73322 3.731956,-12.96002 5.912766,-24.94843 5.08728,-27.96545 14.466591,-58.01312 19.987419,-64.0321 2.373352,-2.58753 23.670878,-8.7381 47.327868,-13.66803 72.6747,-15.14478 104.70522,-26.81043 120.51899,-43.89331 7.5375,-8.14246 18.93737,-16.62867 25.33303,-18.85819 10.16138,-3.54227 11.62848,-5.79599 11.62848,-17.86365 0,-7.59549 -2.32165,-17.14123 -5.15918,-21.21283 -2.83752,-4.07159 -6.40753,-15.0028 -7.93335,-24.29159 -1.52584,-9.28876 -5.95968,-19.91 -9.85302,-23.60269 -3.89331,-3.69272 -7.0788,-8.40549 -7.0788,-10.47284 0,-2.06735 -3.79993,-8.89844 -8.44434,-15.18015 -7.20301,-9.74246 -8.51347,-16.47839 -8.91474,-45.82281 -0.77523,-56.69315 4.08462,-82.63574 19.96089,-106.55435 22.41717,-33.77291 65.70825,-57.16452 105.9945,-57.27239 15.74176,-0.0421 22.35587,1.78301 28.96613,7.993 4.99167,4.68944 16.72253,9.33697 28.11191,11.13737 22.65991,3.58206 43.03946,17.9722 52.93448,37.37747 4.97467,9.75589 6.56341,22.12063 6.56784,51.11599 0.003,21.44308 1.65475,39.26626 3.75885,40.56668 10.20547,6.30734 0.68496,49.8862 -15.32523,70.14947 -6.02035,7.6196 -10.98315,16.90836 -11.02847,20.6417 -0.0454,3.73336 -3.42307,14.15002 -7.50607,23.14816 -13.56028,29.88415 -8.89405,59.46103 10.42547,66.08151 3.60007,1.23367 12.45667,9.84366 19.68125,19.13327 7.2246,9.28967 17.35784,17.84473 22.51828,19.01117 5.1604,1.16656 28.30279,9.55585 51.42742,18.643 23.1247,9.0871 43.172,16.52204 44.54963,16.52204 1.37762,0 9.82074,4.64435 18.76251,10.32086 15.97955,10.14423 24.12292,23.68506 24.12292,40.11163 0,4.41602 3.49237,14.71942 7.76081,22.89649 6.86908,13.15918 11.54443,38.39483 21.00671,113.38476 l 2.01263,15.95044 -319.38641,0 -319.386371,0 0,-9.44421 z"
         inkscape:connector-curvature="0"
         style="fill:#f8f8f8" />
    </g>
  </g>
</svg>
