<?xml version="1.0" encoding="utf-8"?>
<svg xmlns="http://www.w3.org/2000/svg" version="1.1" width="400px" height="100px" viewBox="0 0 400 100">
<path fill="#1A2F85" d="M259.33 62.31c0 24.99-16.44 37.57-30.23 37.65c-9.03 0.08-16.2-4.11-19.42-8.54v7.33h-20.15V0h20.47v33.37c3.22-4.44 10.24-8.79 19.26-8.7C243.04 24.75 259.33 37.32 259.33 62.31M299.15 24.67c-18.7 0-34.99 13.54-34.99 37.64c0 22.17 15.8 37.73 36.59 37.73c9.68 0 19.11-2.74 24.91-7.9l1.85-17.41c-6.85 5-15.64 7.34-24.42 7.34c-9.76 0-16.69-4.76-18.14-12.01h45.23c0.24-1.93 0.32-3.87 0.32-5.88C330.51 38.21 315.76 24.67 299.15 24.67M209.35 62.4c0 11.61 6.21 18.94 14.59 18.94c8.87 0 14.51-7.18 14.51-18.94c0-11.45-5.64-18.94-14.51-18.94C215.55 43.45 209.35 51.11 209.35 62.4M155.58 24.67c10.72 0 23.54 5.64 23.54 27.97v31.76c0 7.34 2.17 10.96 7.26 14.35h-21.52c-4.27-3.71-6.21-8.7-6.21-16.04V54.98c0-7.9-3.55-11.77-9.19-11.77c-6.21 0-10.24 5.4-10.24 14.19v25.39c0 9.92 1.77 12.58 5.89 15.96h-21.37c-3.55-3.63-5-8.7-5-16.04V54.98c0-7.9-3.55-11.77-9.19-11.77c-6.21 0-10.24 5.4-10.24 14.19v41.35H78.84V26.03h19.59v7.18c2.82-3.79 7.9-8.54 17.98-8.54c8.47 0 14.92 4.35 18.46 10.56C138.25 30.55 144.38 24.67 155.58 24.67M30.07 99.96c9.03 0 16.04-4.11 19.27-8.54v7.33h20.47V26.03H49.33v7.34c-3.23-4.44-10.24-8.7-19.27-8.7C16.28 24.75 0 37.32 0 62.31c0 24.99 16.44 37.57 30.23 37.65H30.07zM49.98 62.4c0 11.61-6.21 18.94-14.59 18.94c-8.87 0-14.51-7.18-14.51-18.94c0-11.45 5.64-18.94 14.51-18.94C43.77 43.45 49.98 51.11 49.98 62.4M363.48 75.7h0.16l13.62-49.58h21.93l-24.26 72.63h-23.05l-24.43-72.63h22.17L363.48 75.7zM297.78 41.92c7.42 0 11.85 5.88 12.42 13.14h-25.31C285.85 47 291.01 41.92 297.78 41.92"/>
</svg>
