<?xml version="1.0" encoding="utf-8"?>
<svg xmlns="http://www.w3.org/2000/svg" version="1.1" width="300px" height="100px" viewBox="0 0 300 100">
<path fill="#000000" d="M57.05 76.6c-4.3 4.3-10.23 6.95-16.78 6.95c-13.11 0-23.74-10.63-23.74-23.74c0-13.11 10.63-23.74 23.74-23.74c3.17 0 6.19 0.62 8.96 1.75l6.36-15.14c-4.74-1.96-9.93-3.04-15.38-3.04C18 19.64 0 37.64 0 59.85c0 22.2 18 40.2 40.2 40.2c10.91 0 20.8-4.34 28.05-11.4L57.05 76.6zM180.85 50.71c-4.12-17.83-20.09-31.12-39.17-31.12c-22.2 0-40.2 18-40.2 40.2c0 8.06 2.37 15.56 6.45 21.85L180.85 50.71zM158.52 76.55c-4.29 4.3-10.23 6.95-16.79 6.95c-4.69 0-9.07-1.36-12.75-3.71l-8.88 13.94c6.23 3.97 13.64 6.27 21.58 6.27c10.92 0 20.82-4.35 28.07-11.42L158.52 76.55zM118.15 62.46c-0.1-0.89-0.15-1.79-0.15-2.7c0-13.11 10.63-23.74 23.74-23.74c7.2 0 13.66 3.21 18.01 8.28L118.15 62.46zM275.6 77.32c-4.22 3.84-9.82 6.18-15.97 6.18c-13.11 0-23.74-10.63-23.74-23.74c0-3.63 0.81-7.06 2.27-10.14L223.3 42.42c-2.52 5.26-3.94 11.15-3.94 17.37c0 22.2 18 40.2 40.2 40.2c10.45 0 19.97-3.99 27.12-10.52L275.6 77.32zM62.59 42.78l6.12-15.23l12.76 5.23c0 0 9.75 3.6 9.75 15.33v50.71H75.84V48.57L62.59 42.78zM216.95 84.71l-6.12 15.23l-12.76-5.23c0 0-9.75-3.6-9.75-15.33V1.38h15.38v77.54L216.95 84.71z"/>
<path fill="#29A5DE" d="M243.54 42.26c4.22-3.84 9.82-6.17 15.97-6.17c13.11 0 23.74 10.63 23.74 23.74c0 3.63-0.81 7.06-2.27 10.14l14.86 7.21c2.52-5.26 3.94-11.15 3.94-17.37c0-22.2-18-40.2-40.2-40.2c-10.45 0-19.97 3.99-27.12 10.52L243.54 42.26z"/>
<circle fill="#29A5DE" cx="83.48" cy="11.2" r="11.2"/>
</svg>
