<?xml version="1.0" encoding="utf-8"?>
<svg xmlns="http://www.w3.org/2000/svg" version="1.1" width="100px" height="100px" viewBox="0 0 100 100">
<path style="fill:#1268B3;" d="M-780.31 407.57c-2.27-2.27-4.83-3.83-7.68-4.67c-1.72-0.5-3.51-0.74-5.41-0.74c-1.4 0-2.75 0.13-4.01 0.4c-3.41 0.71-6.44 2.4-9.08 5.04c-3.64 3.64-5.47 8-5.47 13.1s1.82 9.45 5.47 13.1c2.64 2.64 5.68 4.33 9.08 5.04c1.27 0.26 2.61 0.4 4.01 0.4c1.9 0 3.7-0.24 5.41-0.77c2.85-0.84 5.41-2.4 7.68-4.67c3.62-3.64 5.44-8 5.44-13.1C-774.87 415.57-776.66 411.22-780.31 407.57zM-780.99 433.13c-2.06 2.06-4.41 3.51-7 4.33c-1.69 0.55-3.51 0.82-5.41 0.82c-1.4 0-2.75-0.13-4.01-0.42c-3.17-0.71-5.97-2.3-8.42-4.73c-3.43-3.46-5.15-7.6-5.15-12.44c0-4.86 1.72-9.03 5.15-12.46c2.46-2.46 5.25-4.04 8.42-4.73c1.27-0.29 2.61-0.42 4.01-0.42c1.9 0 3.72 0.26 5.41 0.79c2.59 0.82 4.94 2.27 7 4.36c3.43 3.43 5.17 7.6 5.17 12.46h-0.03C-775.85 425.53-777.56 429.67-780.99 433.13zM-797.42 415.34c0.18-0.21 0.34-0.42 0.53-0.66c0.63-0.87 0.95-1.58 0.95-2.11c0-0.18-0.05-0.32-0.16-0.4c-0.32-0.24-0.77 0-1.32 0.69c-0.13 0.16-0.26 0.34-0.4 0.55c-0.71 1.11-1.08 2.14-1.08 3.09C-798.39 416.26-797.89 415.86-797.42 415.34zM-787.99 414.65c0.11-0.13 0.24-0.26 0.34-0.42c0.55-0.69 0.85-1.21 0.85-1.61c0-0.18-0.08-0.32-0.24-0.45c-0.26-0.18-0.58-0.05-0.95 0.37c-0.13 0.13-0.26 0.32-0.4 0.53c-0.53 0.87-0.79 1.74-0.79 2.67C-788.81 415.49-788.41 415.12-787.99 414.65zM-800.4 424.79c-0.9 1-1.37 1.88-1.37 2.61c0 0.42 0.16 0.74 0.42 0.98c0.26 0.19 0.55 0.29 0.82 0.29c0.85 0 1.66-0.66 2.48-1.95c0.24-0.4 0.45-0.79 0.63-1.21c0.45-1.03 0.74-2.17 0.84-3.43c-0.29 0.13-0.58 0.29-0.84 0.42C-798.66 423.18-799.66 423.94-800.4 424.79zM-787.99 406.33c-0.63-0.11-1.27-0.13-1.93-0.13c-1.06 0-1.98 0.26-2.77 0.82c-0.79 0.55-1.37 0.84-1.69 0.84c-0.37 0-0.69-0.13-0.9-0.34c-0.24-0.24-0.37-0.53-0.37-0.84c0-0.58 0.32-1.08 0.95-1.5c0.61-0.42 1.53-0.66 2.77-0.66c0.71 0 1.37 0.05 1.95 0.13c0.55 0.05 1.21 0.19 1.98 0.32c-1.79-0.55-3.62-0.84-5.46-0.84c-1.4 0-2.72 0.16-3.96 0.45c-2.4 0.61-4.49 1.77-6.34 3.49c-2.77 2.64-4.17 5.76-4.17 9.35c0 0.9 0.29 1.74 0.84 2.53c0.55 0.82 0.85 1.43 0.85 1.85c0 0.32-0.13 0.58-0.37 0.79c-0.24 0.21-0.53 0.32-0.87 0.32c-0.55 0-1.06-0.29-1.5-0.9c-0.42-0.58-0.63-1.48-0.63-2.67c0-0.74 0.03-1.4 0.13-1.93c0.08-0.55 0.24-1.19 0.45-1.93l-0.08-0.08c-0.61 1.93-0.92 3.8-0.92 5.6c0 4.07 1.35 7.45 4.04 10.17c2.46 2.48 5.33 3.83 8.58 4.01c0.29 0.03 0.55 0.03 0.84 0.03c0.9 0 1.72-0.26 2.48-0.82c0.77-0.53 1.35-0.82 1.72-0.82c0.82 0 1.21 0.4 1.21 1.16c0 0.58-0.29 1.08-0.92 1.5c-0.63 0.42-1.56 0.63-2.77 0.63c-0.71 0-1.37-0.05-2.03-0.13c-0.16-0.03-0.34-0.05-0.53-0.08c-0.48-0.11-0.98-0.19-1.48-0.29c0.48 0.16 0.98 0.32 1.48 0.42c1.32 0.34 2.67 0.5 3.99 0.5c1.95 0 3.75-0.32 5.44-0.92c1.8-0.66 3.43-1.69 4.88-3.06c2.85-2.67 4.28-5.78 4.28-9.37c0-0.95-0.29-1.85-0.82-2.64c-0.55-0.79-0.82-1.35-0.82-1.66c0-0.37 0.11-0.66 0.34-0.9c0.24-0.24 0.53-0.34 0.87-0.34c0.58 0 1.08 0.29 1.5 0.92c0.45 0.61 0.66 1.53 0.66 2.77c0 0.92-0.08 1.72-0.21 2.35c-0.13 0.61-0.26 1.16-0.34 1.66c0.53-1.87 0.82-3.72 0.82-5.54c0-4.15-1.29-7.58-3.85-10.27C-782.76 408.05-785.22 406.73-787.99 406.33zM-784.43 428.88c-0.87 0.95-2.06 1.45-3.56 1.45c-0.03 0-0.03 0-0.05 0c-1.64 0-2.96-0.58-3.88-1.72c-0.95-1.16-1.43-2.48-1.43-3.96c0-1.53 0.42-2.8 1.24-3.78c0.84-0.98 1.66-1.69 2.48-2.08c-0.03-0.05-0.08-0.11-0.18-0.16c-0.08-0.05-0.21-0.21-0.37-0.48c-0.95 0.69-1.79 1.24-2.56 1.72c-0.77 0.48-1.48 0.9-2.17 1.27c-0.24 2.24-0.5 3.91-0.82 4.99c-0.32 1.06-0.87 2.01-1.69 2.85c-0.03 0.03-0.05 0.05-0.08 0.08c-0.87 0.84-1.88 1.27-3.04 1.27c-0.87 0-1.58-0.26-2.16-0.77c-0.55-0.53-0.85-1.27-0.85-2.19s0.45-1.95 1.29-3.14c0.77-1.03 2.38-2.14 4.83-3.35c0.34-0.18 0.69-0.34 1.08-0.53l0.13-0.95c-0.42 0.26-0.82 0.45-1.21 0.58c-0.29 0.08-0.55 0.11-0.82 0.11c-1.11 0-1.85-0.61-2.19-1.87c-0.79-0.11-1.37-0.42-1.72-0.98c-0.37-0.55-0.55-1.21-0.55-1.95c0-0.58 0.11-1.06 0.32-1.48c0.18-0.42 0.45-0.63 0.74-0.63c0.18 0 0.29 0.13 0.29 0.37c0 0.08-0.03 0.34-0.11 0.71c-0.08 0.37-0.11 0.66-0.11 0.92c0 0.34 0.08 0.66 0.24 0.92c0.16 0.29 0.42 0.53 0.82 0.69c0-1.88 0.48-3.38 1.43-4.49c0.55-0.63 1.11-1.08 1.66-1.35c0.42-0.21 0.84-0.32 1.29-0.32c0.34 0 0.71 0.13 1.08 0.37c0.37 0.24 0.55 0.71 0.55 1.43c0 0.98-0.4 2.03-1.19 3.14c-0.5 0.69-1.08 1.27-1.74 1.72c-0.42 0.32-0.87 0.55-1.37 0.76c0.11 0.55 0.4 0.82 0.9 0.82c0.16 0 0.32-0.03 0.48-0.08c0.5-0.16 1.03-0.55 1.58-1.21c0.26-0.87 0.58-1.53 1-1.98c0.4-0.42 0.77-0.66 1.08-0.66c0.4 0 0.58 0.24 0.58 0.69c0 0.26-0.11 0.63-0.32 1.08c-0.24 0.45-0.55 0.9-1 1.35l-0.29 1.56l4.04-2.67c0-2.01 0.4-3.54 1.21-4.59c0.48-0.66 0.98-1.11 1.53-1.35c0.34-0.16 0.71-0.24 1.06-0.24c0.5 0 0.92 0.13 1.21 0.42c0.32 0.26 0.48 0.66 0.48 1.16c0 0.63-0.29 1.37-0.87 2.22c-0.42 0.61-1.06 1.27-1.88 1.98c-0.29 0.21-0.58 0.45-0.9 0.69c0.05 0.26 0.16 0.48 0.34 0.63c0.18 0.16 0.34 0.26 0.5 0.37c0 0 0.03 0 0.05-0.03c0.4-0.11 0.82-0.16 1.27-0.16c0.98 0 1.48 0.26 1.48 0.79c0 0.24-0.16 0.45-0.45 0.63c-0.32 0.16-0.74 0.26-1.29 0.26c-0.26 0-0.61-0.05-1-0.13c-0.03 0-0.03 0-0.05 0c-1.11 0.29-1.95 0.92-2.53 1.87c-0.55 0.92-0.82 1.9-0.82 2.9c0 1.19 0.32 2.22 0.98 3.04c0.63 0.82 1.45 1.24 2.43 1.24h0.03c0.98 0 1.74-0.32 2.3-0.95c0.58-0.63 0.87-1.35 0.87-2.17c0-0.66-0.18-1.24-0.5-1.72c-0.34-0.5-0.77-0.74-1.24-0.74c-0.34 0-0.63 0.11-0.9 0.32c-0.24 0.18-0.37 0.5-0.37 0.92c0 0.32 0.11 0.61 0.34 0.87c0.24 0.29 0.34 0.55 0.34 0.82c0 0.45-0.24 0.66-0.74 0.66c-0.03 0-0.08 0-0.13 0c-0.45-0.03-0.82-0.24-1.11-0.61c-0.32-0.4-0.45-0.92-0.45-1.56c0-0.77 0.26-1.43 0.79-2.03c0.21-0.24 0.48-0.45 0.77-0.58c0.42-0.21 0.9-0.32 1.48-0.32c1 0 1.85 0.4 2.46 1.19c0.63 0.79 0.95 1.72 0.95 2.8C-783.11 426.79-783.55 427.9-784.43 428.88zM-762.52 424.97c0 0.3-0.15 0.44-0.44 0.44c-0.29 0-0.44-0.15-0.44-0.44v-8.72c0-0.29 0.15-0.44 0.44-0.44c0.3 0 0.44 0.15 0.44 0.44V424.97zM-754.64 424.98c0 0.29-0.14 0.43-0.42 0.43c-0.3 0-0.44-0.14-0.44-0.43v-4.12c0-0.63-0.14-1.12-0.43-1.45s-0.71-0.5-1.26-0.5c-0.63 0-1.14 0.22-1.54 0.67s-0.6 1.05-0.6 1.82v3.58c0 0.29-0.15 0.43-0.44 0.43c-0.29 0-0.43-0.14-0.43-0.43v-6.36c0-0.29 0.14-0.44 0.43-0.44c0.29 0 0.44 0.15 0.44 0.44v0.74c0.22-0.39 0.53-0.7 0.93-0.93s0.84-0.34 1.32-0.34c0.8 0 1.41 0.23 1.83 0.68c0.42 0.45 0.63 1.07 0.63 1.86V424.98zM-747.03 424.98c0 0.29-0.14 0.43-0.42 0.43c-0.3 0-0.44-0.14-0.44-0.43v-4.12c0-0.63-0.14-1.12-0.43-1.45s-0.71-0.5-1.26-0.5c-0.63 0-1.14 0.22-1.54 0.67s-0.6 1.05-0.6 1.82v3.58c0 0.29-0.15 0.43-0.44 0.43c-0.29 0-0.43-0.14-0.43-0.43v-6.36c0-0.29 0.14-0.44 0.43-0.44c0.29 0 0.44 0.15 0.44 0.44v0.74c0.22-0.39 0.53-0.7 0.93-0.93s0.84-0.34 1.32-0.34c0.8 0 1.41 0.23 1.83 0.68c0.42 0.45 0.63 1.07 0.63 1.86V424.98zM-742.27 425.51c-0.92 0-1.67-0.33-2.25-1c-0.58-0.67-0.88-1.57-0.88-2.7c0-1.18 0.29-2.09 0.88-2.74s1.33-0.97 2.25-0.97c0.93 0 1.68 0.33 2.26 0.98s0.88 1.57 0.88 2.73c0 1.13-0.29 2.03-0.88 2.7S-741.35 425.51-742.27 425.51zM-742.27 418.92c-0.64 0-1.17 0.24-1.61 0.72s-0.65 1.2-0.65 2.17c0 0.96 0.23 1.68 0.68 2.16s0.98 0.72 1.58 0.72c0.6 0 1.13-0.24 1.59-0.72s0.68-1.2 0.68-2.16c0-0.95-0.21-1.67-0.64-2.15S-741.61 418.92-742.27 418.92zM-735.33 424.38c0.44-0.78 0.84-1.66 1.22-2.64s0.72-2.06 1.03-3.23c0.05-0.22 0.18-0.33 0.38-0.33c0.33 0 0.49 0.13 0.49 0.38c0 0.19-0.13 0.68-0.38 1.47s-0.55 1.58-0.91 2.39c-0.35 0.8-0.68 1.48-0.99 2.03s-0.5 0.85-0.57 0.9s-0.15 0.08-0.25 0.08h-0.08c-0.14 0-0.24-0.05-0.32-0.14c-0.08-0.09-0.22-0.34-0.43-0.73s-0.48-0.98-0.8-1.77s-0.6-1.63-0.84-2.52c-0.25-0.89-0.37-1.44-0.37-1.66c0-0.13 0.05-0.24 0.14-0.31c0.09-0.07 0.21-0.11 0.35-0.11c0.21 0 0.34 0.12 0.39 0.36c0.17 0.92 0.43 1.91 0.78 2.95S-735.76 423.49-735.33 424.38zM-725.41 424.98c0 0.29-0.15 0.43-0.44 0.43c-0.29 0-0.43-0.14-0.43-0.43v-0.68c-0.24 0.4-0.54 0.7-0.9 0.9s-0.78 0.3-1.26 0.3c-0.92 0-1.64-0.34-2.16-1.02s-0.78-1.58-0.78-2.7c0-1.1 0.27-2 0.8-2.68c0.53-0.68 1.28-1.02 2.25-1.02c0.46 0 0.86 0.09 1.2 0.28c0.34 0.19 0.63 0.46 0.85 0.83v-0.59c0-0.28 0.14-0.42 0.43-0.42c0.29 0 0.44 0.14 0.44 0.42V424.98zM-726.28 421.11c0-0.65-0.19-1.17-0.57-1.58c-0.38-0.41-0.87-0.61-1.46-0.61c-0.69 0-1.23 0.27-1.62 0.81s-0.58 1.23-0.58 2.06c0 0.9 0.18 1.61 0.55 2.12c0.37 0.52 0.92 0.78 1.65 0.78c0.6 0 1.08-0.2 1.46-0.61c0.38-0.41 0.57-0.93 0.57-1.58V421.11zM-722.08 419.03v4.46c0 0.4 0.07 0.7 0.21 0.9s0.34 0.3 0.62 0.3c0.11 0 0.2-0.01 0.28-0.03c0.08-0.02 0.21-0.07 0.39-0.16c0.05-0.02 0.11-0.03 0.16-0.03c0.09 0 0.17 0.04 0.24 0.12s0.11 0.18 0.11 0.28c0 0.16-0.12 0.31-0.36 0.44s-0.52 0.2-0.84 0.2c-0.59 0-1.02-0.16-1.28-0.49s-0.39-0.81-0.39-1.47v-4.53h-0.79c-0.29 0-0.43-0.13-0.43-0.39c0-0.27 0.14-0.4 0.43-0.4h0.79v-1.64c0-0.28 0.14-0.42 0.43-0.42c0.29 0 0.44 0.14 0.44 0.42v1.64h1.19c0.29 0 0.43 0.13 0.43 0.4c0 0.26-0.14 0.39-0.43 0.39H-722.08zM-718.47 416.46c-0.17 0-0.31-0.06-0.42-0.18s-0.16-0.25-0.16-0.41c0-0.16 0.06-0.3 0.17-0.41c0.11-0.12 0.25-0.17 0.41-0.17s0.3 0.06 0.41 0.17c0.12 0.11 0.17 0.25 0.17 0.42c0 0.17-0.06 0.31-0.17 0.42S-718.3 416.46-718.47 416.46zM-718.03 424.98c0 0.29-0.15 0.43-0.45 0.43c-0.28 0-0.42-0.14-0.42-0.43v-6.37c0-0.28 0.14-0.42 0.43-0.42c0.29 0 0.44 0.14 0.44 0.42V424.98zM-713.25 425.51c-0.92 0-1.67-0.33-2.25-1c-0.58-0.67-0.88-1.57-0.88-2.7c0-1.18 0.29-2.09 0.88-2.74s1.33-0.97 2.25-0.97c0.93 0 1.68 0.33 2.26 0.98s0.88 1.57 0.88 2.73c0 1.13-0.29 2.03-0.88 2.7S-712.33 425.51-713.25 425.51zM-713.25 418.92c-0.64 0-1.17 0.24-1.61 0.72s-0.65 1.2-0.65 2.17c0 0.96 0.23 1.68 0.68 2.16s0.98 0.72 1.58 0.72c0.6 0 1.13-0.24 1.59-0.72s0.68-1.2 0.68-2.16c0-0.95-0.21-1.67-0.64-2.15S-712.59 418.92-713.25 418.92zM-702.87 424.98c0 0.29-0.14 0.43-0.42 0.43c-0.3 0-0.44-0.14-0.44-0.43v-4.12c0-0.63-0.14-1.12-0.43-1.45s-0.71-0.5-1.26-0.5c-0.63 0-1.14 0.22-1.54 0.67s-0.6 1.05-0.6 1.82v3.58c0 0.29-0.15 0.43-0.44 0.43c-0.29 0-0.43-0.14-0.43-0.43v-6.36c0-0.29 0.14-0.44 0.43-0.44c0.29 0 0.44 0.15 0.44 0.44v0.74c0.22-0.39 0.53-0.7 0.93-0.93s0.84-0.34 1.32-0.34c0.8 0 1.41 0.23 1.83 0.68c0.42 0.45 0.63 1.07 0.63 1.86V424.98zM-692.02 424.98c0 0.29-0.15 0.43-0.44 0.43c-0.29 0-0.43-0.14-0.43-0.43v-0.68c-0.24 0.4-0.54 0.7-0.9 0.9s-0.78 0.3-1.26 0.3c-0.92 0-1.64-0.34-2.16-1.02s-0.78-1.58-0.78-2.7c0-1.1 0.27-2 0.8-2.68c0.53-0.68 1.28-1.02 2.25-1.02c0.46 0 0.86 0.09 1.2 0.28c0.34 0.19 0.63 0.46 0.85 0.83v-0.59c0-0.28 0.14-0.42 0.43-0.42c0.29 0 0.44 0.14 0.44 0.42V424.98zM-692.89 421.11c0-0.65-0.19-1.17-0.57-1.58c-0.38-0.41-0.87-0.61-1.46-0.61c-0.69 0-1.23 0.27-1.62 0.81s-0.58 1.23-0.58 2.06c0 0.9 0.18 1.61 0.55 2.12c0.37 0.52 0.92 0.78 1.65 0.78c0.6 0 1.08-0.2 1.46-0.61c0.38-0.41 0.57-0.93 0.57-1.58V421.11zM-688.69 419.03v4.46c0 0.4 0.07 0.7 0.21 0.9s0.34 0.3 0.62 0.3c0.11 0 0.2-0.01 0.28-0.03c0.08-0.02 0.21-0.07 0.39-0.16c0.05-0.02 0.11-0.03 0.16-0.03c0.09 0 0.17 0.04 0.24 0.12s0.11 0.18 0.11 0.28c0 0.16-0.12 0.31-0.36 0.44s-0.52 0.2-0.84 0.2c-0.59 0-1.02-0.16-1.28-0.49s-0.39-0.81-0.39-1.47v-4.53h-0.79c-0.29 0-0.43-0.13-0.43-0.39c0-0.27 0.14-0.4 0.43-0.4h0.79v-1.64c0-0.28 0.14-0.42 0.43-0.42c0.29 0 0.44 0.14 0.44 0.42v1.64h1.19c0.29 0 0.43 0.13 0.43 0.4c0 0.26-0.14 0.39-0.43 0.39H-688.69zM-678.19 419.89c-0.28 1.05-0.57 2.01-0.87 2.86s-0.57 1.5-0.81 1.92c-0.24 0.42-0.39 0.65-0.46 0.68c-0.07 0.03-0.14 0.05-0.22 0.05h-0.07c-0.1 0-0.21-0.03-0.31-0.09s-0.31-0.44-0.6-1.15c-0.3-0.71-0.59-1.61-0.89-2.7c-0.29-1.09-0.49-2.02-0.6-2.78c-0.01-0.06-0.01-0.11-0.01-0.14c0-0.25 0.15-0.38 0.44-0.38c0.22 0 0.36 0.12 0.4 0.37c0.14 0.88 0.35 1.84 0.62 2.9c0.27 1.05 0.61 2.03 1.01 2.94c0.75-1.5 1.4-3.45 1.95-5.85c0.05-0.24 0.2-0.36 0.46-0.36c0.24 0 0.39 0.12 0.44 0.37c0.47 2.49 1.03 4.43 1.68 5.84c0.44-0.95 0.82-1.91 1.13-2.88s0.56-1.96 0.75-2.97c0.04-0.24 0.18-0.36 0.42-0.36c0.3 0 0.44 0.12 0.44 0.37c0 0.05-0.01 0.13-0.03 0.23c-0.09 0.55-0.31 1.38-0.67 2.5c-0.36 1.12-0.7 2.06-1.04 2.8s-0.56 1.15-0.65 1.22s-0.21 0.11-0.34 0.11h-0.08c-0.11 0-0.22-0.03-0.31-0.1s-0.27-0.4-0.52-1.02s-0.49-1.29-0.71-2.04S-678.02 420.73-678.19 419.89zM-669.32 425.51c-0.92 0-1.67-0.33-2.25-1c-0.58-0.67-0.88-1.57-0.88-2.7c0-1.18 0.29-2.09 0.88-2.74s1.33-0.97 2.25-0.97c0.93 0 1.68 0.33 2.26 0.98s0.88 1.57 0.88 2.73c0 1.13-0.29 2.03-0.88 2.7S-668.4 425.51-669.32 425.51zM-669.32 418.92c-0.64 0-1.17 0.24-1.61 0.72s-0.65 1.2-0.65 2.17c0 0.96 0.23 1.68 0.68 2.16s0.98 0.72 1.58 0.72c0.6 0 1.13-0.24 1.59-0.72s0.68-1.2 0.68-2.16c0-0.95-0.21-1.67-0.64-2.15S-668.66 418.92-669.32 418.92zM-663.64 419.09c0.18-0.33 0.42-0.58 0.7-0.75s0.62-0.25 1.02-0.25c0.34 0 0.6 0.05 0.76 0.14c0.17 0.09 0.25 0.21 0.25 0.35c0 0.12-0.03 0.22-0.08 0.31c-0.05 0.09-0.13 0.13-0.23 0.13c-0.06 0-0.13-0.01-0.21-0.04c-0.15-0.05-0.32-0.07-0.51-0.07c-0.52 0-0.93 0.18-1.24 0.55s-0.46 0.85-0.46 1.44v4.07c0 0.29-0.15 0.43-0.44 0.43c-0.29 0-0.43-0.14-0.43-0.43v-6.37c0-0.28 0.14-0.42 0.43-0.42c0.29 0 0.44 0.14 0.44 0.42V419.09zM-658.87 421.44c0.64-0.46 1.21-0.94 1.73-1.44s0.97-1.04 1.36-1.6c0.11-0.15 0.23-0.23 0.35-0.23c0.13 0 0.23 0.04 0.32 0.12s0.13 0.16 0.13 0.25c0 0.09-0.03 0.18-0.09 0.29c-0.06 0.11-0.25 0.36-0.57 0.76s-0.87 0.94-1.65 1.64c0.31 0.28 0.62 0.6 0.92 0.95s0.61 0.74 0.91 1.16c0.6 0.84 0.9 1.4 0.9 1.68c0 0.1-0.04 0.19-0.13 0.27s-0.19 0.13-0.32 0.13c-0.1 0-0.18-0.03-0.24-0.08c-0.05-0.05-0.11-0.12-0.16-0.22c-0.37-0.7-0.77-1.33-1.2-1.9s-0.89-1.06-1.37-1.48c-0.45 0.33-0.75 0.55-0.9 0.64v2.58c0 0.3-0.15 0.44-0.44 0.44c-0.29 0-0.43-0.15-0.43-0.44v-9.67c0-0.29 0.14-0.43 0.43-0.43c0.29 0 0.44 0.14 0.44 0.43V421.44zM85.47 14.61C79.34 8.48 72.42 4.28 64.72 2C60.09 0.64 55.24 0 50.11 0c-3.78 0-7.41 0.36-10.83 1.07c-9.2 1.92-17.39 6.49-24.52 13.61C4.92 24.52 0 36.28 0 50.04C0 63.8 4.92 75.56 14.76 85.4c7.13 7.13 15.32 11.69 24.52 13.61c3.42 0.71 7.06 1.07 10.83 1.07c5.13 0 9.98-0.64 14.61-2.07c7.7-2.28 14.61-6.49 20.74-12.62c9.77-9.84 14.68-21.6 14.68-35.36C100.15 36.21 95.3 24.45 85.47 14.61zM83.61 83.61c-5.56 5.56-11.9 9.48-18.89 11.69c-4.56 1.5-9.48 2.21-14.61 2.21c-3.78 0-7.41-0.36-10.83-1.14c-8.55-1.93-16.11-6.2-22.74-12.76C7.27 74.27 2.64 63.08 2.64 50.04c0-13.11 4.63-24.38 13.9-33.64C23.17 9.76 30.72 5.49 39.28 3.64c3.42-0.78 7.06-1.14 10.83-1.14c5.13 0 10.05 0.71 14.61 2.14c6.99 2.21 13.33 6.13 18.89 11.76c9.27 9.27 13.97 20.53 13.97 33.64h-0.07C97.51 63.08 92.88 74.27 83.61 83.61zM39.28 35.57c0.5-0.57 0.93-1.14 1.43-1.78c1.71-2.35 2.57-4.28 2.57-5.7c0-0.5-0.14-0.86-0.43-1.07c-0.86-0.64-2.07 0-3.56 1.85c-0.36 0.43-0.71 0.93-1.07 1.5c-1.92 2.99-2.92 5.77-2.92 8.34C36.64 38.06 37.99 37 39.28 35.57zM64.72 33.72c0.29-0.36 0.64-0.71 0.93-1.14c1.5-1.85 2.28-3.28 2.28-4.35c0-0.5-0.21-0.86-0.64-1.21c-0.71-0.5-1.57-0.14-2.57 1c-0.36 0.36-0.71 0.86-1.07 1.42c-1.42 2.35-2.14 4.71-2.14 7.2C62.51 36 63.58 35 64.72 33.72zM31.22 61.09c-2.42 2.71-3.71 5.06-3.71 7.06c0 1.14 0.43 2 1.14 2.64c0.71 0.5 1.5 0.78 2.21 0.78c2.28 0 4.49-1.78 6.7-5.27c0.64-1.07 1.21-2.14 1.71-3.28c1.21-2.78 2-5.85 2.28-9.27c-0.78 0.36-1.57 0.78-2.28 1.14C35.93 56.74 33.22 58.81 31.22 61.09zM64.72 11.26c-1.71-0.28-3.42-0.36-5.2-0.36c-2.85 0-5.35 0.71-7.48 2.21c-2.14 1.5-3.71 2.28-4.56 2.28c-1 0-1.85-0.36-2.42-0.93c-0.64-0.64-1-1.43-1-2.28c0-1.57 0.86-2.92 2.57-4.06c1.64-1.14 4.14-1.78 7.49-1.78c1.92 0 3.71 0.14 5.27 0.36c1.5 0.14 3.28 0.5 5.35 0.86c-4.85-1.5-9.77-2.28-14.75-2.28c-3.78 0-7.34 0.43-10.69 1.21c-6.49 1.64-12.12 4.78-17.11 9.41C14.68 23.02 10.91 31.44 10.91 41.13c0 2.42 0.78 4.7 2.28 6.84c1.5 2.21 2.28 3.85 2.28 4.99c0 0.86-0.36 1.57-1 2.14c-0.64 0.57-1.42 0.85-2.35 0.85c-1.5 0-2.85-0.78-4.06-2.42c-1.14-1.57-1.71-3.99-1.71-7.2c0-2 0.07-3.78 0.36-5.2c0.21-1.5 0.64-3.21 1.21-5.2l-0.21-0.21c-1.64 5.2-2.5 10.26-2.5 15.11c0 10.98 3.64 20.1 10.91 27.44c6.63 6.7 14.4 10.34 23.17 10.83c0.78 0.07 1.5 0.07 2.28 0.07c2.42 0 4.63-0.71 6.7-2.21c2.07-1.42 3.64-2.21 4.63-2.21c2.21 0 3.28 1.07 3.28 3.14c0 1.57-0.78 2.92-2.49 4.06c-1.71 1.14-4.21 1.71-7.48 1.71c-1.93 0-3.71-0.14-5.49-0.36c-0.43-0.07-0.93-0.14-1.43-0.21c-1.28-0.29-2.64-0.5-3.99-0.78c1.28 0.43 2.64 0.86 3.99 1.14c3.56 0.93 7.2 1.35 10.76 1.35c5.27 0 10.12-0.86 14.68-2.5c4.85-1.78 9.27-4.56 13.19-8.27c7.7-7.2 11.55-15.61 11.55-25.3c0-2.57-0.78-4.99-2.21-7.13c-1.5-2.14-2.21-3.64-2.21-4.49c0-1 0.28-1.78 0.93-2.42c0.64-0.64 1.42-0.93 2.35-0.93c1.57 0 2.92 0.78 4.06 2.5c1.21 1.64 1.78 4.13 1.78 7.48c0 2.5-0.21 4.63-0.57 6.34c-0.36 1.64-0.71 3.14-0.93 4.49C94.09 59.52 94.88 54.53 94.88 49.61c0-11.19-3.49-20.46-10.41-27.73C78.84 15.9 72.21 12.33 64.72 11.26zM74.35 72.14c-2.35 2.57-5.56 3.92-9.62 3.92c-0.07 0-0.07 0-0.14 0c-4.42 0-7.98-1.57-10.48-4.63c-2.57-3.14-3.85-6.7-3.85-10.69c0-4.13 1.14-7.56 3.35-10.19c2.28-2.64 4.49-4.56 6.7-5.63c-0.07-0.14-0.21-0.29-0.5-0.43c-0.21-0.14-0.57-0.57-1-1.28c-2.57 1.85-4.85 3.35-6.92 4.63c-2.07 1.28-3.99 2.42-5.84 3.42c-0.64 6.06-1.35 10.55-2.21 13.47c-0.85 2.85-2.35 5.42-4.56 7.7c-0.07 0.07-0.14 0.14-0.21 0.21C36.71 74.92 34 76.06 30.86 76.06c-2.35 0-4.28-0.71-5.84-2.07c-1.5-1.43-2.28-3.42-2.28-5.92c0-2.49 1.21-5.27 3.49-8.48c2.07-2.78 6.42-5.77 13.04-9.05c0.93-0.5 1.85-0.93 2.92-1.42l0.36-2.57c-1.14 0.71-2.21 1.21-3.28 1.57c-0.78 0.21-1.5 0.29-2.21 0.29c-2.99 0-4.99-1.64-5.92-5.06c-2.14-0.29-3.71-1.14-4.63-2.64c-1-1.5-1.5-3.28-1.5-5.28c0-1.57 0.29-2.85 0.86-3.99c0.5-1.14 1.21-1.71 2-1.71c0.5 0 0.78 0.36 0.78 1c0 0.21-0.07 0.93-0.29 1.93c-0.21 1-0.29 1.78-0.29 2.5c0 0.93 0.21 1.78 0.64 2.49c0.43 0.78 1.14 1.43 2.21 1.85c0-5.06 1.28-9.12 3.85-12.12c1.5-1.71 2.99-2.92 4.49-3.64c1.14-0.57 2.28-0.85 3.49-0.85c0.93 0 1.92 0.36 2.92 1c1 0.64 1.5 1.92 1.5 3.85c0 2.64-1.07 5.49-3.21 8.48c-1.35 1.85-2.92 3.42-4.7 4.63c-1.14 0.86-2.35 1.5-3.71 2.07c0.29 1.5 1.07 2.21 2.42 2.21c0.43 0 0.85-0.07 1.28-0.21c1.36-0.43 2.78-1.5 4.28-3.28c0.71-2.35 1.57-4.13 2.71-5.35C47.33 35.14 48.33 34.5 49.18 34.5c1.07 0 1.57 0.64 1.57 1.85c0 0.71-0.29 1.71-0.86 2.92c-0.64 1.21-1.5 2.42-2.71 3.64l-0.78 4.2l10.91-7.2c0-5.42 1.07-9.55 3.28-12.4c1.28-1.78 2.64-2.99 4.13-3.64c0.93-0.43 1.93-0.64 2.85-0.64c1.35 0 2.5 0.36 3.28 1.14c0.85 0.71 1.28 1.78 1.28 3.14c0 1.71-0.78 3.71-2.35 5.99c-1.14 1.64-2.85 3.42-5.06 5.35c-0.78 0.57-1.57 1.21-2.42 1.85c0.14 0.71 0.43 1.28 0.93 1.71c0.5 0.43 0.93 0.71 1.35 1c0 0 0.07 0 0.14-0.07c1.07-0.29 2.21-0.43 3.42-0.43c2.64 0 3.99 0.71 3.99 2.14c0 0.64-0.43 1.21-1.21 1.71c-0.85 0.43-2 0.71-3.49 0.71c-0.71 0-1.64-0.14-2.71-0.36c-0.07 0-0.07 0-0.14 0c-2.99 0.78-5.27 2.5-6.84 5.06c-1.5 2.49-2.21 5.13-2.21 7.84c0 3.21 0.85 5.99 2.64 8.2c1.71 2.21 3.92 3.35 6.56 3.35h0.07c2.64 0 4.7-0.86 6.2-2.57c1.57-1.71 2.35-3.64 2.35-5.85c0-1.78-0.5-3.35-1.35-4.63c-0.93-1.35-2.07-2-3.35-2c-0.93 0-1.71 0.29-2.42 0.86c-0.64 0.5-1 1.35-1 2.5c0 0.85 0.28 1.64 0.93 2.35c0.64 0.78 0.93 1.5 0.93 2.21c0 1.21-0.64 1.78-1.99 1.78c-0.07 0-0.21 0-0.36 0c-1.21-0.07-2.21-0.64-2.99-1.64c-0.86-1.07-1.21-2.5-1.21-4.21c0-2.07 0.71-3.85 2.14-5.49c0.57-0.64 1.28-1.21 2.07-1.57c1.14-0.57 2.42-0.86 3.99-0.86c2.71 0 4.99 1.07 6.63 3.21c1.71 2.14 2.57 4.63 2.57 7.56C77.91 66.51 76.7 69.5 74.35 72.14z"/>
</svg>
