<?xml version="1.0" encoding="utf-8"?>
<svg xmlns="http://www.w3.org/2000/svg" version="1.1" width="100px" height="100px" viewBox="0 0 100 100">
<path fill="#1268B3" d="M85.47 14.61C79.34 8.48 72.42 4.28 64.72 2C60.09 0.64 55.24 0 50.11 0c-3.78 0-7.41 0.36-10.83 1.07c-9.2 1.92-17.39 6.49-24.52 13.61C4.92 24.52 0 36.28 0 50.04S4.92 75.56 14.76 85.4c7.13 7.13 15.32 11.69 24.52 13.61c3.42 0.71 7.06 1.07 10.83 1.07c5.13 0 9.98-0.64 14.61-2.07C72.42 95.73 79.33 91.52 85.46 85.39c9.77-9.84 14.68-21.6 14.68-35.36C100.15 36.21 95.3 24.45 85.47 14.61zM83.61 83.61C78.05 89.17 71.71 93.09 64.72 95.3c-4.56 1.5-9.48 2.21-14.61 2.21c-3.78 0-7.41-0.36-10.83-1.14c-8.55-1.93-16.11-6.2-22.74-12.76C7.27 74.27 2.64 63.08 2.64 50.04c0-13.11 4.63-24.38 13.9-33.64C23.17 9.76 30.72 5.49 39.28 3.64C42.7 2.86 46.34 2.5 50.11 2.5c5.13 0 10.05 0.71 14.61 2.14C71.71 6.85 78.05 10.77 83.61 16.4C92.88 25.67 97.58 36.93 97.58 50.04h-0.07C97.51 63.08 92.88 74.27 83.61 83.61zM39.28 35.57c0.5-0.57 0.93-1.14 1.43-1.78c1.71-2.35 2.57-4.28 2.57-5.7c0-0.5-0.14-0.86-0.43-1.07c-0.86-0.64-2.07 0-3.56 1.85c-0.36 0.43-0.71 0.93-1.07 1.5c-1.92 2.99-2.92 5.77-2.92 8.34C36.64 38.06 37.99 37 39.28 35.57zM64.72 33.72c0.29-0.36 0.64-0.71 0.93-1.14c1.5-1.85 2.28-3.28 2.28-4.35c0-0.5-0.21-0.86-0.64-1.21c-0.71-0.5-1.57-0.14-2.57 1c-0.36 0.36-0.71 0.86-1.07 1.42c-1.42 2.35-2.14 4.71-2.14 7.2C62.51 36 63.58 35 64.72 33.72zM31.22 61.09c-2.42 2.71-3.71 5.06-3.71 7.06c0 1.14 0.43 2 1.14 2.64c0.71 0.5 1.5 0.78 2.21 0.78c2.28 0 4.49-1.78 6.7-5.27c0.64-1.07 1.21-2.14 1.71-3.28c1.21-2.78 2-5.85 2.28-9.27c-0.78 0.36-1.57 0.78-2.28 1.14C35.93 56.74 33.22 58.81 31.22 61.09zM64.72 11.26C63.01 10.98 61.3 10.9 59.52 10.9c-2.85 0-5.35 0.71-7.48 2.21c-2.14 1.5-3.71 2.28-4.56 2.28c-1 0-1.85-0.36-2.42-0.93c-0.64-0.64-1-1.43-1-2.28c0-1.57 0.86-2.92 2.57-4.06c1.64-1.14 4.14-1.78 7.49-1.78c1.92 0 3.71 0.14 5.27 0.36c1.5 0.14 3.28 0.5 5.35 0.86c-4.85-1.5-9.77-2.28-14.75-2.28c-3.78 0-7.34 0.43-10.69 1.21c-6.49 1.64-12.12 4.78-17.11 9.41c-7.51 7.12-11.28 15.54-11.28 25.23c0 2.42 0.78 4.7 2.28 6.84c1.5 2.21 2.28 3.85 2.28 4.99c0 0.86-0.36 1.57-1 2.14c-0.64 0.57-1.42 0.85-2.35 0.85c-1.5 0-2.85-0.78-4.06-2.42c-1.14-1.57-1.71-3.99-1.71-7.2c0-2 0.07-3.78 0.36-5.2c0.21-1.5 0.64-3.21 1.21-5.2l-0.21-0.21c-1.64 5.2-2.5 10.26-2.5 15.11c0 10.98 3.64 20.1 10.91 27.44c6.63 6.7 14.4 10.34 23.17 10.83c0.78 0.07 1.5 0.07 2.28 0.07c2.42 0 4.63-0.71 6.7-2.21c2.07-1.42 3.64-2.21 4.63-2.21c2.21 0 3.28 1.07 3.28 3.14c0 1.57-0.78 2.92-2.49 4.06c-1.71 1.14-4.21 1.71-7.48 1.71c-1.93 0-3.71-0.14-5.49-0.36c-0.43-0.07-0.93-0.14-1.43-0.21c-1.28-0.29-2.64-0.5-3.99-0.78c1.28 0.43 2.64 0.86 3.99 1.14c3.56 0.93 7.2 1.35 10.76 1.35c5.27 0 10.12-0.86 14.68-2.5c4.85-1.78 9.27-4.56 13.19-8.27c7.7-7.2 11.55-15.61 11.55-25.3c0-2.57-0.78-4.99-2.21-7.13c-1.5-2.14-2.21-3.64-2.21-4.49c0-1 0.28-1.78 0.93-2.42c0.64-0.64 1.42-0.93 2.35-0.93c1.57 0 2.92 0.78 4.06 2.5c1.21 1.64 1.78 4.13 1.78 7.48c0 2.5-0.21 4.63-0.57 6.34c-0.36 1.64-0.71 3.14-0.93 4.49c1.42-5.05 2.21-10.04 2.21-14.96c0-11.19-3.49-20.46-10.41-27.73C78.84 15.9 72.21 12.33 64.72 11.26zM74.35 72.14c-2.35 2.57-5.56 3.92-9.62 3.92c-0.07 0-0.07 0-0.14 0c-4.42 0-7.98-1.57-10.48-4.63c-2.57-3.14-3.85-6.7-3.85-10.69c0-4.13 1.14-7.56 3.35-10.19c2.28-2.64 4.49-4.56 6.7-5.63c-0.07-0.14-0.21-0.29-0.5-0.43c-0.21-0.14-0.57-0.57-1-1.28c-2.57 1.85-4.85 3.35-6.92 4.63c-2.07 1.28-3.99 2.42-5.84 3.42c-0.64 6.06-1.35 10.55-2.21 13.47c-0.85 2.85-2.35 5.42-4.56 7.7c-0.07 0.07-0.14 0.14-0.21 0.21c-2.36 2.28-5.07 3.42-8.21 3.42c-2.35 0-4.28-0.71-5.84-2.07c-1.5-1.43-2.28-3.42-2.28-5.92c0-2.49 1.21-5.27 3.49-8.48c2.07-2.78 6.42-5.77 13.04-9.05c0.93-0.5 1.85-0.93 2.92-1.42l0.36-2.57c-1.14 0.71-2.21 1.21-3.28 1.57c-0.78 0.21-1.5 0.29-2.21 0.29c-2.99 0-4.99-1.64-5.92-5.06c-2.14-0.29-3.71-1.14-4.63-2.64c-1-1.5-1.5-3.28-1.5-5.28c0-1.57 0.29-2.85 0.86-3.99c0.5-1.14 1.21-1.71 2-1.71c0.5 0 0.78 0.36 0.78 1c0 0.21-0.07 0.93-0.29 1.93c-0.21 1-0.29 1.78-0.29 2.5c0 0.93 0.21 1.78 0.64 2.49c0.43 0.78 1.14 1.43 2.21 1.85c0-5.06 1.28-9.12 3.85-12.12c1.5-1.71 2.99-2.92 4.49-3.64c1.14-0.57 2.28-0.85 3.49-0.85c0.93 0 1.92 0.36 2.92 1s1.5 1.92 1.5 3.85c0 2.64-1.07 5.49-3.21 8.48c-1.35 1.85-2.92 3.42-4.7 4.63c-1.14 0.86-2.35 1.5-3.71 2.07c0.29 1.5 1.07 2.21 2.42 2.21c0.43 0 0.85-0.07 1.28-0.21c1.36-0.43 2.78-1.5 4.28-3.28c0.71-2.35 1.57-4.13 2.71-5.35c1.09-1.15 2.09-1.79 2.94-1.79c1.07 0 1.57 0.64 1.57 1.85c0 0.71-0.29 1.71-0.86 2.92c-0.64 1.21-1.5 2.42-2.71 3.64l-0.78 4.2l10.91-7.2c0-5.42 1.07-9.55 3.28-12.4c1.28-1.78 2.64-2.99 4.13-3.64c0.93-0.43 1.93-0.64 2.85-0.64c1.35 0 2.5 0.36 3.28 1.14c0.85 0.71 1.28 1.78 1.28 3.14c0 1.71-0.78 3.71-2.35 5.99c-1.14 1.64-2.85 3.42-5.06 5.35c-0.78 0.57-1.57 1.21-2.42 1.85c0.14 0.71 0.43 1.28 0.93 1.71c0.5 0.43 0.93 0.71 1.35 1c0 0 0.07 0 0.14-0.07c1.07-0.29 2.21-0.43 3.42-0.43c2.64 0 3.99 0.71 3.99 2.14c0 0.64-0.43 1.21-1.21 1.71c-0.85 0.43-2 0.71-3.49 0.71c-0.71 0-1.64-0.14-2.71-0.36c-0.07 0-0.07 0-0.14 0c-2.99 0.78-5.27 2.5-6.84 5.06c-1.5 2.49-2.21 5.13-2.21 7.84c0 3.21 0.85 5.99 2.64 8.2c1.71 2.21 3.92 3.35 6.56 3.35H64.8c2.64 0 4.7-0.86 6.2-2.57c1.57-1.71 2.35-3.64 2.35-5.85c0-1.78-0.5-3.35-1.35-4.63c-0.93-1.35-2.07-2-3.35-2c-0.93 0-1.71 0.29-2.42 0.86c-0.64 0.5-1 1.35-1 2.5c0 0.85 0.28 1.64 0.93 2.35c0.64 0.78 0.93 1.5 0.93 2.21c0 1.21-0.64 1.78-1.99 1.78c-0.07 0-0.21 0-0.36 0c-1.21-0.07-2.21-0.64-2.99-1.64c-0.86-1.07-1.21-2.5-1.21-4.21c0-2.07 0.71-3.85 2.14-5.49c0.57-0.64 1.28-1.21 2.07-1.57c1.14-0.57 2.42-0.86 3.99-0.86c2.71 0 4.99 1.07 6.63 3.21c1.71 2.14 2.57 4.63 2.57 7.56C77.91 66.51 76.7 69.5 74.35 72.14z"/>
</svg>
