<?xml version="1.0" encoding="utf-8"?>
<svg xmlns="http://www.w3.org/2000/svg" version="1.1" width="76.4px" height="100px" viewBox="0 0 382 500">
<rect fill="#EE1C24" x="11.31" y="11.22" width="359.32" height="51.42"/>
<rect fill="#0072BD" x="11.31" y="69.96" width="359.32" height="49.54"/>
<path fill="#00AEEF" d="M370.63 126.38H11.31v181.97v6.09h0.11c0.99 29.54 9.12 57.27 22.72 81.53h0.09c82.97-9.49 126.62-62.41 155.22-111.67l0 0l0.02 0.05l0.08 0.15c31.05 50.27 73.3 103.25 158.12 111.8c13.71-24.34 21.91-52.19 22.9-81.86h0.06v-1.43c0.04-1.54 0.06-3.09 0.06-4.65c0-1.56-0.02-3.12-0.06-4.66V126.38L370.63 126.38z"/>
<path fill="#FFDD00" d="M0 0v324.34h0.34c5.01 97.82 88.49 175.66 190.71 175.66c102.23 0 185.71-77.84 190.71-175.66h0.24V315.06V0H0zM370.63 314.44h-0.06c-3.21 96.35-82.39 173.5-179.57 173.5c-97.19 0-176.37-77.15-179.59-173.5h-0.11V126.38h359.32V314.44zM370.63 119.49H11.31V69.96h359.32V119.49zM370.66 62.64L11.31 62.64V11.22h359.32h0.03V62.64z"/>
<path fill="#FFDD00" stroke="#000000" d="M195.35 338.53c1.27-1.17 2.07-2.85 2.07-4.72v-0.13v-0.03l-0-0.11v-0.06l-0.01-0.08v-0.08l-0.01-0.06l-0.01-0.1l-0.01-0.03l-0.01-0.13v-0.01l-0.02-0.13v-0.02l-0.02-0.12l-0.01-0.04l-0.01-0.09l-0.02-0.08l-0.02-0.06l-0.01-0.09l-0.01-0.04l-0.03-0.11v-0.02l-0.04-0.13V332.06l-0.03-0.12l-0.01-0.04l-0.02-0.09l-0.03-0.05l-0.02-0.08l-0.03-0.08l-0.01-0.04l-0.04-0.1l-0.01-0.02l-0.05-0.12v-0.01l-0.06-0.12l-0.01-0.02l-0.05-0.1l-0.02-0.05l-0.03-0.06l-0.04-0.08l-0.02-0.05l-0.05-0.09l-0.01-0.02l-0.06-0.11l-0.07-0.12l-0.02-0.01l-0.05-0.1l-0.02-0.03l-0.05-0.07l-0.03-0.06l-0.04-0.05l-0.05-0.08l-0.02-0.02l-0.06-0.1l-0.01-0.01l-0.08-0.1l-0.01-0.01l-0.07-0.1l-0.02-0.02l-0.06-0.08l-0.04-0.05l-0.05-0.05l-0.06-0.06l-0.02-0.04l-0.08-0.08l-0.01-0.02l-0.1-0.09v-0.01l-0.09-0.08l-0.02-0.03l-0.08-0.06l-0.04-0.05l-0.05-0.05l-0.03-0.01l-0.04-0.04l-0.04-0.02l-0.07-0.07l-0.03-0.02l-0.1-0.08l-0.1-0.08l-0.02-0.01l-0.09-0.06l-0.04-0.04l-0.06-0.04l-0.05-0.05l-0.05-0.02l-0.08-0.06l-0.03-0.02l-0.1-0.07l-0.11-0.07l-0.01-0.01l-0.1-0.06l-0.04-0.01l-0.07-0.04l-0.07-0.03l-0.06-0.03l-0.08-0.04l-0.03-0.02l-0.11-0.05l-0.02-0.01l-0.12-0.05l-0.01-0.01l-0.11-0.04l-0.03-0.02l-0.09-0.03l-0.06-0.03l-0.07-0.02l-0.08-0.02l-0.05-0.02l-0.1-0.03l-0.02-0.01l-0.13-0.04l-0.13-0.03l0.01-2.6c2.98 0 5.2 0.61 6.56 3.29h0.65v-5.04v-4.86h-0.65c-1.34 2.65-3.61 3.32-6.56 3.32c0-2.97 0.52-5.3 3.2-6.66v-0.65h-4.86h-4.99v0.65c2.66 1.34 3.36 3.7 3.36 6.66c-2.97 0-5.22-0.62-6.56-3.3h-0.65v4.85v5.04h0.65c1.34-2.65 3.6-3.31 6.55-3.31l0.01 2.61l-0.1 0.02l-0.03 0.01l-0.12 0.04l-0.13 0.04l-0.03 0.01l-0.1 0.03l-0.05 0.02l-0.08 0.03l-0.06 0.02l-0.06 0.03l-0.09 0.03l-0.03 0.02l-0.11 0.05v0.01l-0.13 0.05h-0.01l-0.1 0.06l-0.05 0.01l-0.08 0.04l-0.06 0.03l-0.06 0.03l-0.08 0.04l-0.03 0.02l-0.1 0.05l-0.01 0.01l-0.11 0.07l-0.02 0.01l-0.08 0.06l-0.11 0.08l-0.05 0.03l-0.06 0.04l-0.07 0.06l-0.03 0.03l-0.09 0.06l-0.01 0.01l-0.11 0.08h-0.01l-0.09 0.08l-0.03 0.01l-0.07 0.06l-0.04 0.04l-0.06 0.05l-0.06 0.06l-0.03 0.04l-0.08 0.07l-0.02 0.02l-0.09 0.1l-0.09 0.08l-0.02 0.03l-0.06 0.07l-0.04 0.05l-0.05 0.06l-0.05 0.06l-0.03 0.04l-0.06 0.08l-0.02 0.02l-0.07 0.11h-0.01l-0.08 0.1l-0.02 0.02l-0.06 0.09l-0.03 0.04l-0.04 0.06l-0.04 0.06l-0.03 0.05l-0.05 0.08l-0.02 0.02l-0.07 0.11v0.01l-0.07 0.12l-0 0.01l-0.06 0.1l-0.02 0.04l-0.04 0.09l-0.03 0.05l-0.02 0.05l-0.04 0.09l-0.02 0.03l-0.05 0.1v0.01l-0.05 0.12l-0.01 0.01l-0.04 0.12l-0.02 0.03l-0.03 0.09l-0.02 0.07l-0.02 0.06l-0.03 0.08l-0.02 0.04l-0.03 0.12v0.01l-0.04 0.13v0.01l-0.03 0.12l-0.01 0.04l-0.01 0.09l-0.02 0.05l-0.02 0.08l-0.02 0.09l-0 0.04l-0.01 0.12v0.02l-0.03 0.13v0.01l-0.01 0.13v0.03l-0.01 0.1l-0.01 0.06v0.08l-0.01 0.08v0.06l-0.01 0.11v0.03v0.13c0 1.87 0.8 3.53 2.07 4.71c-10.25 1.04-19.43 5.74-26.2 12.77l-0.11 0.11c-1.25 1.22-2.48 2.72-3.6 4.3l-0.1 0.13l-0.04 0.06l-0.05 0.07l-0.1 0.13l-0.09 0.14l-0.1 0.13l-0.09 0.14l-0.09 0.13l-0.04 0.05l-1.01 1.55l-0.03 0.04l-0.21 0.36l-0.09 0.14l-0.08 0.13l-0.07 0.13c-3.78 6.33-5.96 13.73-5.96 21.64c0 22.34 17.31 40.64 39.26 42.24c-0.23 0.42-0.36 0.91-0.36 1.42c0 1.2 0.72 2.25 1.77 2.8c-2.14 9.06-6.65 17.29-15.48 21.44h-1.34c-0.82 0-1.49 0.58-1.49 1.29v1.62c0 0.71 0.67 1.29 1.49 1.29h37.06c0.82 0 1.5-0.58 1.5-1.29v-1.62c0-0.71-0.67-1.29-1.5-1.29h-1.34c-8.84-4.15-13.35-12.38-15.49-21.44c1.06-0.54 1.78-1.58 1.78-2.8c0-0.51-0.13-1-0.36-1.42c8.3-0.6 15.92-3.59 22.21-8.29c0.46-0.29 0.88-0.63 1.28-0.99c9.62-7.77 15.75-19.64 15.75-32.96C233.38 358.75 216.72 340.71 195.35 338.53zM184.73 341.36c-3.17 2.35-5.94 5.09-8.34 8.13c-2.25-0.65-4.44-1.49-6.57-2.51C174.26 344.17 179.31 342.22 184.73 341.36zM167.28 348.72c2.37 1.21 4.86 2.24 7.42 3.07c-0.86 1.25-1.65 2.52-2.39 3.85c-3.19-1.56-6.23-2.77-8.96-3.6C164.59 350.85 165.9 349.73 167.28 348.72zM187.08 376.97c-0.6 0.64-1.05 1.43-1.29 2.29h-16.78c-0-4.15 0.52-8.28 1.6-12.29l2.49 0.44C177.78 370.13 182.51 373.35 187.08 376.97zM156.96 360.04c2 0.65 4.09 1.43 6.21 2.35c-2.15-0.63-4.27-1.36-6.31-2.18L156.96 360.04zM155.52 362.6c3.93 1.63 8.1 2.89 12.43 3.84c-1.12 4.13-1.72 8.44-1.76 12.82h-14.98C151.43 373.29 152.96 367.63 155.52 362.6zM151.22 382.05h14.98c0.05 4.35 0.64 8.64 1.77 12.75c-4.34 0.95-8.55 2.2-12.47 3.85C152.95 393.63 151.43 388.01 151.22 382.05zM156.82 401.04c3.8-1.54 7.84-2.73 11.94-3.62c1.42 4.28 3.41 8.33 5.97 12.02c-2.6 0.83-5.11 1.88-7.51 3.12C163.04 409.43 159.5 405.53 156.82 401.04zM169.73 414.29c2.17-1.05 4.4-1.88 6.68-2.56c2.43 3.09 5.27 5.87 8.5 8.23C179.4 419.13 174.26 417.15 169.73 414.29zM189.76 420.17c-4.13-2.68-7.61-5.77-10.45-9.18c3.42-0.76 6.93-1.12 10.45-1.12V420.17zM189.76 407.07c-4.19 0.03-8.31 0.56-12.29 1.59c-2.66-3.67-4.68-7.64-6.07-11.77c6.25-1.16 12.57-1.67 18.36-1.72V407.07zM189.76 392.38c-6.41 0.14-12.91 0.69-19.14 1.87c-1.07-3.97-1.6-8.08-1.6-12.2h16.78c0.51 1.91 2.03 3.41 3.97 3.87V392.38zM189.76 366.06h-0.34c-4.96-3.64-9.98-6.77-14.69-9.22c0.81-1.45 1.73-2.88 2.73-4.26c3.97 1.02 8.11 1.56 12.3 1.59V366.06zM189.76 351.35c-3.52 0.01-7.04-0.35-10.48-1.12c2.86-3.41 6.34-6.51 10.48-9.19V351.35zM212.21 346.98c-2.15 1.03-4.36 1.86-6.6 2.52c-2.4-3.05-5.18-5.79-8.34-8.14C202.7 342.22 207.75 344.17 212.21 346.98zM192.26 341.05c4.14 2.67 7.61 5.77 10.48 9.18c-3.44 0.77-6.94 1.13-10.48 1.12V341.05zM192.26 354.16c4.19-0.03 8.33-0.57 12.3-1.58c2.66 3.66 4.67 7.63 6.06 11.76c-6.25 1.17-12.57 1.67-18.36 1.71V354.16zM204.68 379.26c-3.65-3.75-7.59-7.24-11.6-10.42c6.13-0.17 12.34-0.75 18.33-1.87c1.07 4.01 1.59 8.15 1.59 12.29H204.68zM213 382.05c-0.01 2.11-0.15 4.23-0.43 6.32c-1.65-2.16-3.41-4.27-5.27-6.32H213zM192.26 385.91c1.17-0.28 2.2-0.93 2.94-1.84c2.97 2.86 5.79 5.86 8.39 9.03c-3.76-0.41-7.56-0.64-11.33-0.72V385.91zM192.26 395.17c4.35 0.04 9.02 0.33 13.73 0.98c1.11 1.46 2.17 2.96 3.17 4.47c-1.24 2.79-2.77 5.48-4.62 8.03c-3.96-1.02-8.09-1.55-12.28-1.58V395.17zM192.26 420.17V409.88c3.51-0.01 7.02 0.35 10.45 1.12C199.85 414.4 196.39 417.49 192.26 420.17zM197.09 419.98c3.23-2.37 6.07-5.16 8.51-8.25c2.28 0.67 4.51 1.5 6.69 2.56C207.76 417.15 202.61 419.13 197.09 419.98zM214.8 412.56c-2.4-1.25-4.92-2.29-7.52-3.12c1.34-1.94 2.53-3.99 3.57-6.12c1.73 2.86 3.25 5.81 4.52 8.81L214.8 412.56zM222.29 405.27c-0.8-2.1-1.75-4.2-2.83-6.25c1.96 0.6 3.88 1.27 5.75 2.02C224.32 402.51 223.35 403.93 222.29 405.27zM226.52 398.64c-2.88-1.2-5.88-2.2-8.99-3.01c-0.85-1.42-1.75-2.81-2.7-4.18c0.61-3.06 0.94-6.21 0.98-9.4h14.98C230.58 388.01 229.07 393.63 226.52 398.64zM230.79 379.26h-14.98c-0.04-4.38-0.64-8.69-1.76-12.82c4.32-0.95 8.51-2.2 12.43-3.84C229.05 367.63 230.58 373.29 230.79 379.26zM213.26 363.81c-1.42-4.29-3.42-8.35-5.96-12.03c2.56-0.82 5.05-1.85 7.43-3.07c4.18 3.11 7.73 7.01 10.42 11.49C221.38 361.74 217.34 362.92 213.26 363.81z"/>
<path fill="#FFDD00" d="M262.02 211.96c0.17-2.02 0.26-4.07 0.26-6.13c0-2.07-0.1-4.11-0.26-6.13l-9.47-0.39c-0.41-3.97-1.19-7.83-2.29-11.55l8.61-3.99c-1.25-3.93-2.83-7.71-4.7-11.33l-8.9 3.27c-1.88-3.47-4.08-6.74-6.55-9.78l6.43-6.98c-2.64-3.13-5.55-6.03-8.68-8.68l-6.98 6.43c-3.04-2.47-6.31-4.67-9.79-6.55l3.27-8.9c-3.62-1.87-7.4-3.45-11.34-4.7l-3.99 8.61c-3.72-1.11-7.59-1.88-11.56-2.29l-0.39-9.47c-2.02-0.17-4.07-0.26-6.14-0.26c-2.07 0-4.11 0.09-6.14 0.26l-0.39 9.47c-3.97 0.41-7.84 1.19-11.56 2.29l-3.99-8.61c-3.93 1.25-7.73 2.83-11.34 4.7l3.27 8.9c-3.47 1.88-6.75 4.07-9.79 6.55l-6.98-6.43c-3.13 2.65-6.03 5.55-8.68 8.67l6.42 6.98c-2.47 3.04-4.67 6.31-6.55 9.78l-8.91-3.27c-1.87 3.61-3.45 7.4-4.7 11.33l8.61 3.99c-1.1 3.72-1.88 7.58-2.29 11.55l-9.48 0.39c-0.17 2.02-0.26 4.07-0.26 6.13c0 2.07 0.09 4.11 0.26 6.13l9.48 0.39c0.41 3.97 1.19 7.83 2.29 11.55l-8.61 3.99c1.25 3.94 2.83 7.72 4.7 11.33l8.91-3.27c1.89 3.46 4.08 6.74 6.55 9.78l-6.42 6.97c2.64 3.13 5.55 6.03 8.68 8.67l6.98-6.42c3.04 2.47 6.32 4.67 9.79 6.55l-3.27 8.91c3.61 1.87 7.4 3.45 11.33 4.7l3.99-8.61c3.72 1.1 7.58 1.88 11.55 2.29l0.39 9.47c2.02 0.17 4.07 0.26 6.14 0.26c2.07 0 4.11-0.09 6.13-0.26l0.39-9.47c3.97-0.41 7.83-1.18 11.55-2.29l3.99 8.61c3.93-1.25 7.72-2.83 11.34-4.7l-3.27-8.9c3.47-1.88 6.75-4.08 9.79-6.55l6.98 6.42c3.13-2.64 6.03-5.55 8.68-8.67l-6.43-6.97c2.48-3.04 4.67-6.31 6.56-9.78l8.9 3.27c1.88-3.61 3.45-7.4 4.71-11.33l-8.62-3.99c1.11-3.72 1.89-7.58 2.29-11.55L262.02 211.96zM189.55 259.21c-29.5 0-53.41-23.9-53.41-53.38c0-29.48 23.92-53.38 53.41-53.38c29.5 0 53.41 23.9 53.41 53.38C242.97 235.31 219.05 259.21 189.55 259.21z"/>
<g fill="#FFDD00">
	<polygon points="190.8 178.47 203.63 196.1 203.71 196.05 198.81 181.07"/>
	<polygon points="199.09 180.17 211.98 170.85 211.97 170.79 191.09 177.57"/>
	<polygon points="211.68 169.9 211.65 169.83 195.74 169.86 190.79 176.67"/>
	<polygon points="202.87 196.66 190.02 179.02 190.02 187.44 202.77 196.72"/>
	<polygon points="189.08 187.44 189.08 179.02 176.27 196.68 176.34 196.73"/>
	<polygon points="175.4 196.05 175.5 196.13 188.32 178.47 180.31 181.06"/>
	<polygon points="188.02 177.57 167.14 170.78 167.13 170.84 180.01 180.16"/>
	<polygon points="183.36 169.86 167.45 169.83 167.43 169.88 188.31 176.66"/>
	<polygon points="189.08 154.1 189.04 154.1 184.13 169.31 189.08 176.11"/>
	<polygon points="190.07 154.1 190.02 154.1 190.02 176.11 194.98 169.29"/>
</g>
<g fill="#FFDD00">
	<path d="M198.21 226.43v2.81h20.04v-2.7v-21.82h-20.04V226.43zM211.75 210v-2.37v-0.91h0.98h2.79h0.98v0.91v2.37v0.92h-0.98h-2.79h-0.98V210zM211.75 215.95v-2.37v-0.92h0.98h2.79h0.98v0.92v2.37v0.92h-0.98h-2.79h-0.98V215.95zM211.75 221.92v-2.37v-0.91h0.98h2.79h0.98v0.91v2.37v0.91h-0.98h-2.79h-0.98V221.92zM205.88 210v-2.37v-0.91h0.98h2.79h0.98v0.91v2.37v0.92h-0.98h-2.79h-0.98V210zM205.88 215.95v-2.37v-0.92h0.98h2.79h0.98v0.92v2.37v0.92h-0.98h-2.79h-0.98V215.95zM205.88 221.92v-2.37v-0.91h0.98h2.79h0.98v0.91v2.37v0.91h-0.98h-2.79h-0.98V221.92zM199.96 210v-2.37v-0.91h0.98h2.79h0.99v0.91v2.37v0.92h-0.99h-2.79h-0.98V210zM199.96 215.95v-2.37v-0.92h0.98h2.79h0.99v0.92v2.37v0.92h-0.99h-2.79h-0.98V215.95zM199.96 221.92v-2.37v-0.91h0.98h2.79h0.99v0.91v2.37v0.91h-0.99h-2.79h-0.98V221.92z"/>
	<path d="M219.17 199.63v0.03v1.24v25.64v2.7h14.65v-29.61H219.17zM225.65 219.65v2.37v0.92h-0.98h-2.79h-0.98v-0.92v-2.37v-0.92h0.98h2.79h0.98V219.65zM225.65 211.42v2.38v0.91h-0.98h-2.79h-0.98v-0.91v-2.38v-0.91h0.98h2.79h0.98V211.42zM225.65 203.61v2.38v0.91h-0.98h-2.79h-0.98v-0.91v-2.38v-0.91h0.98h2.79h0.98V203.61zM231.82 219.65v2.37v0.92h-0.98h-2.79h-0.99v-0.92v-2.37v-0.92h0.99h2.79h0.98V219.65zM231.82 211.42v2.38v0.91h-0.98h-2.79h-0.99v-0.91v-2.38v-0.91h0.99h2.79h0.98V211.42zM231.82 203.61v2.38v0.91h-0.98h-2.79h-0.99v-0.91v-2.38v-0.91h0.99h2.79h0.98V203.61z"/>
	<path d="M145.29 229.24h14.64v-2.16v-26.19v-1.24v-0.03h-14.64V229.24zM153.46 205.99v-2.38v-0.91h0.98h2.79h0.98v0.91v2.38v0.91h-0.98h-2.79h-0.98V205.99zM153.46 213.79v-2.38v-0.91h0.98h2.79h0.98v0.91v2.38v0.91h-0.98h-2.79h-0.98V213.79zM153.46 222.01v-2.37v-0.92h0.98h2.79h0.98v0.92v2.37v0.92h-0.98h-2.79h-0.98V222.01zM147.28 205.99v-2.38v-0.91h0.98h2.79h0.98v0.91v2.38v0.91h-0.98h-2.79h-0.98V205.99zM147.28 213.79v-2.38v-0.91h0.98h2.79h0.98v0.91v2.38v0.91h-0.98h-2.79h-0.98V213.79zM147.28 222.01v-2.37v-0.92h0.98h2.79h0.98v0.92v2.37v0.92h-0.98h-2.79h-0.98V222.01z"/>
	<path d="M160.86 227.08v2.16h20.04v-2.69v-21.84h-20.04V227.08zM174.39 210v-2.37v-0.91h0.98h2.79h0.98v0.91v2.37v0.92h-0.98h-2.79h-0.98V210zM174.39 215.95v-2.37v-0.92h0.98h2.79h0.98v0.92v2.37v0.92h-0.98h-2.79h-0.98V215.95zM174.39 221.92v-2.37v-0.91h0.98h2.79h0.98v0.91v2.37v0.91h-0.98h-2.79h-0.98V221.92zM168.46 210v-2.37v-0.91h0.99h2.79h0.98v0.91v2.37v0.92h-0.98h-2.79h-0.99V210zM168.46 215.95v-2.37v-0.92h0.99h2.79h0.98v0.92v2.37v0.92h-0.98h-2.79h-0.99V215.95zM168.46 221.92v-2.37v-0.91h0.99h2.79h0.98v0.91v2.37v0.91h-0.98h-2.79h-0.99V221.92zM162.6 210v-2.37v-0.91h0.99h2.79h0.98v0.91v2.37v0.92h-0.98h-2.79h-0.99V210zM162.6 215.95v-2.37v-0.92h0.99h2.79h0.98v0.92v2.37v0.92h-0.98h-2.79h-0.99V215.95zM162.6 221.92v-2.37v-0.91h0.99h2.79h0.98v0.91v2.37v0.91h-0.98h-2.79h-0.99V221.92z"/>
	<path d="M181.81 204.71v21.84v2.69h3.25h1.24v-5.07v-0.91h0.91h2.34h2.34h0.91v0.91v5.07h1.25h3.25v-2.81v-21.72l-7.75-7.74L181.81 204.71zM188.2 210.57v2.37v0.92h-0.98h-2.79h-0.98v-0.92v-2.37v-0.91h0.98h2.79h0.98V210.57zM195.66 209.66v0.91v2.37v0.92h-0.99h-2.79h-0.98v-0.92v-2.37v-0.91h0.98h2.79H195.66zM191.93 202.76v0.91v2.37v0.92h-0.99h-1.39h-1.4h-0.98v-0.92v-2.37v-0.91h0.98h1.4h1.39H191.93z"/>
	<polygon points="226.59 188.94 219.28 198.72 233.7 198.72"/>
	<polygon points="192.8 230.16 192.8 232.91 197.3 232.91 197.3 230.16 194.05 230.16"/>
	<polygon points="187.21 224.17 187.21 232.91 189.55 232.91 191.89 232.91 191.89 224.17 189.55 224.17"/>
	<polygon points="181.81 230.16 181.81 232.91 186.3 232.91 186.3 230.16 185.05 230.16"/>
	<polygon points="152.51 188.94 145.4 198.72 159.83 198.72"/>
	<polygon points="197.68 203.8 218.25 203.8 218.25 200.9 194.78 200.9"/>
	<polygon points="188.15 203.68 188.15 206.05 189.55 206.05 190.95 206.05 190.95 203.68 189.55 203.68"/>
	<polygon points="160.86 200.9 160.86 203.8 181.42 203.8 184.33 200.9"/>
	<rect x="219.17" y="230.16" width="14.65" height="2.76"/>
	<rect x="198.21" y="230.16" width="20.04" height="2.76"/>
	<rect x="160.86" y="230.16" width="20.04" height="2.76"/>
	<rect x="145.29" y="230.16" width="14.65" height="2.76"/>
	<rect x="221.88" y="203.61" width="2.79" height="2.38"/>
	<rect x="228.05" y="203.61" width="2.79" height="2.38"/>
	<rect x="228.05" y="211.42" width="2.79" height="2.38"/>
	<rect x="228.05" y="219.65" width="2.79" height="2.38"/>
	<rect x="206.87" y="219.55" width="2.79" height="2.38"/>
	<rect x="206.87" y="213.58" width="2.79" height="2.38"/>
	<rect x="206.87" y="207.63" width="2.79" height="2.38"/>
	<rect x="212.73" y="219.56" width="2.79" height="2.38"/>
	<rect x="212.73" y="213.58" width="2.79" height="2.38"/>
	<rect x="221.88" y="219.65" width="2.79" height="2.38"/>
	<rect x="221.88" y="211.42" width="2.79" height="2.38"/>
	<rect x="200.95" y="213.58" width="2.79" height="2.38"/>
	<rect x="200.95" y="219.55" width="2.79" height="2.38"/>
	<rect x="200.95" y="207.63" width="2.79" height="2.38"/>
	<rect x="212.73" y="207.63" width="2.79" height="2.38"/>
	<rect x="148.27" y="203.61" width="2.79" height="2.38"/>
	<rect x="154.44" y="211.42" width="2.79" height="2.38"/>
	<rect x="148.27" y="211.42" width="2.79" height="2.38"/>
	<rect x="154.44" y="203.61" width="2.79" height="2.38"/>
	<rect x="154.44" y="219.65" width="2.79" height="2.38"/>
	<rect x="148.27" y="219.65" width="2.79" height="2.38"/>
	<rect x="175.37" y="207.63" width="2.79" height="2.38"/>
	<rect x="175.37" y="213.58" width="2.79" height="2.38"/>
	<rect x="184.42" y="210.57" width="2.79" height="2.38"/>
	<rect x="191.89" y="210.57" width="2.79" height="2.38"/>
	<rect x="169.45" y="207.63" width="2.79" height="2.38"/>
	<rect x="169.45" y="213.58" width="2.79" height="2.38"/>
	<rect x="175.37" y="219.55" width="2.79" height="2.38"/>
	<rect x="169.45" y="219.55" width="2.79" height="2.38"/>
	<rect x="163.58" y="213.58" width="2.79" height="2.38"/>
	<rect x="163.58" y="219.55" width="2.79" height="2.38"/>
	<rect x="163.58" y="207.63" width="2.79" height="2.38"/>
</g>
<g fill="#000000">
	<polygon points="189.96 101.26 189.96 84.83 198.3 84.83 198.3 58.12 185.91 90.07 170.17 90.07 156.63 59 156.63 84.83 166.86 84.83 166.86 101.26 122.48 101.26 122.48 84.83 132.55 84.83 132.55 48.37 122.32 48.37 122.32 31.07 165.67 31.07 178.7 57.2 188.48 31.07 235.59 31.07 235.59 48.37 225.84 48.37 225.84 84.83 235.74 84.83 235.74 101.26"/>
	<polygon points="263.31 101.26 263.31 84.83 274.94 84.83 274.94 48.37 263.2 48.37 263.2 31.07 345.17 31.07 345.17 58.49 327.79 58.49 321.77 48.37 300.15 48.37 300.15 54.97 317.55 54.97 317.55 73.2 300.15 73.2 300.15 84.81 321.83 84.81 328.28 74.91 345.17 74.91 345.17 101.26"/>
	<polygon points="36.81 101.26 36.81 84.6 47.51 84.6 47.51 48.37 36.81 48.37 36.81 31.07 80.57 31.07 80.57 48.37 70.56 48.37 70.56 84.6 80.57 84.6 80.57 101.26"/>
</g>
<g fill="#FFFFFF">
	<polygon points="223.8 46.33 233.54 46.33 233.54 33.12 189.9 33.12 178.97 62.32 164.41 33.12 124.37 33.12 124.37 46.33 134.6 46.33 134.6 86.87 124.53 86.87 124.53 99.21 164.81 99.21 164.81 86.87 154.59 86.87 154.59 49.18 171.51 88.02 184.5 88.02 200.34 47.18 200.34 86.87 192 86.87 192 99.21 233.69 99.21 233.69 86.87 223.8 86.87"/>
	<polygon points="322.94 46.33 328.96 56.44 343.12 56.44 343.12 33.12 265.25 33.12 265.25 46.33 276.98 46.33 276.98 86.87 265.35 86.87 265.35 99.21 343.12 99.21 343.12 76.96 329.39 76.96 322.94 86.86 298.1 86.86 298.1 71.16 315.5 71.16 315.5 57.01 298.1 57.01 298.1 46.33"/>
	<polygon points="38.85 46.33 49.56 46.33 49.56 86.64 38.85 86.64 38.85 99.21 78.52 99.21 78.52 86.64 68.51 86.64 68.51 46.33 78.52 46.33 78.52 33.12 38.85 33.12"/>
</g>
</svg>
