<?xml version="1.0" encoding="utf-8"?>
<svg xmlns="http://www.w3.org/2000/svg" version="1.1" width="100px" height="100px" viewBox="0 0 100 100">
<path fill="#29334A" d="M6.25 0h87.49c3.44 0 6.25 2.81 6.25 6.25v87.5c0 3.44-2.82 6.25-6.25 6.25H6.25C2.82 100 0 97.2 0 93.75V6.25C0 2.81 2.82 0 6.25 0z"/>
<path fill="#FEFEFE" d="M26.19 39.32c-1.38-0.75 0.69 2.31 0.41 2.89c-1.46 3.15-3.06 6.58-1.33 8.35c0.17 0.17 0.39-1.38 1.26-2.28c1.16-1.2 6.83-5.73 6.46-7.04c-0.37-1.3-3.53-0.17-6.82-1.92H26.19zM21.47 55.65c-0.11 0.73-0.83 1.87-1.35 2.39c-0.46 0.46-0.73 0.61-0.83 1.04c0.44-0.36 0.86-0.28 1.26-0.03c1.12 0.66 2.06 1.36 3.18 1.77c0.65-0.57 1.63-1.44 1.23-1.94c-1.26-1.58-2.84-2.21-3.48-3.22V55.65zM18.53 53.01c-1.12-0.57-1.33-2.5-0.94-3.18c1.7-3 3.19-5.67 4.42-7.99c0.73-1.4 1.77-2.78 1.75-4.08c-0.01-2-1.59-4.22-1.33-5.48c0.5-2.41 4.92-2.21 4.45-4.43c-0.1-0.48-0.25-1.52-0.19-2.85c0.11-2.75 0.39-4.54 2.08-7.15C32.17 12.65 37.83 9.4 44.38 7.98c3.26-0.71 6.54-0.75 9.58-0.37c-2.77-0.76-5.72-0.8-8.05-0.61c-6.93 0.61-12.94 3.22-17.62 8.74c-3.02 3.57-4.1 9.14-5.95 12.24C21 30.22 20.65 30.88 20.68 32.15c0.01 0.77 1.88 2.68 1.75 5.59c-0.05 1.47-4.29 6.74-7.19 10.88c-1.34 1.92 2.17 3.98 3.26 4.38H18.53zM21.66 61.83c-1.35 0.64-1.85 1.72-1.67 2.39c0.07 0.26 0.54 0.82 1.6 1.49c1.48 1.06 1.6 1.83 1.19 3c-0.7 2-1.73 2.61-2.19 4.33c-0.43 1.56 0.3 2.63 1.28 3.31c0.18-1.94 0.8-1.99 2.43-3.89c1.81-2.12 0.18-4.15-1.22-6.27c-0.51-0.76-1.13-1.77-0.58-2.52c0.59-0.8 1.85-0.22 2.91 0.17c-1.24-0.97-2.57-1.88-3.76-2.03V61.83zM37.5 84.04c0 0.12-0.04 0.22-0.12 0.3c-0.08 0.08-0.19 0.12-0.3 0.12c-0.1 0-0.15 0.07-0.15 0.21v0.22c0 0.14 0.06 0.21 0.15 0.21h0.15v-0.01c0.33-0.04 0.61-0.18 0.83-0.43s0.33-0.53 0.33-0.86v-4.54c0-0.15-0.06-0.22-0.15-0.22h-0.58c-0.1 0-0.15 0.07-0.15 0.22v4.76V84.04zM42.68 82.09v-2.38v-0.43c0-0.15-0.06-0.22-0.15-0.22h-0.58c-0.1 0-0.15 0.07-0.15 0.22v2.81c0 0.36 0.12 0.66 0.39 0.93c0.26 0.25 0.57 0.39 0.93 0.39h2.2v-4.11c0-0.15-0.06-0.22-0.15-0.22h-0.58c-0.1 0-0.14 0.07-0.14 0.22v0.43v2.38c0 0.12-0.04 0.22-0.12 0.3c-0.08 0.08-0.19 0.12-0.3 0.12h-0.87c-0.12 0-0.23-0.04-0.32-0.12c-0.08-0.08-0.12-0.19-0.12-0.3L42.68 82.09zM51.46 80.37v2.37v0.01v0.44c0 0.15 0.06 0.22 0.14 0.22h0.58c0.1 0 0.15-0.07 0.15-0.22v-2.81c0-0.36-0.12-0.66-0.39-0.91c-0.26-0.25-0.57-0.39-0.93-0.39h-2.19v4.11c0 0.15 0.06 0.22 0.15 0.22h0.58c0.1 0 0.15-0.07 0.15-0.22v-0.44v-0.01v-2.37c0-0.12 0.04-0.22 0.12-0.3c0.08-0.08 0.18-0.12 0.3-0.12h0.88c0.12 0 0.22 0.04 0.3 0.12c0.08 0.08 0.12 0.18 0.12 0.3H51.46zM56.73 79.29c0-0.15-0.05-0.22-0.15-0.22h-0.59c-0.1 0-0.15 0.07-0.15 0.22v3.89c0 0.15 0.05 0.22 0.15 0.22h0.59c0.1 0 0.15-0.07 0.15-0.22V79.29zM62.75 82.09c0 0.12-0.04 0.22-0.12 0.3c-0.08 0.08-0.19 0.12-0.3 0.12h-0.88c-0.12 0-0.23-0.04-0.32-0.12c-0.08-0.08-0.12-0.19-0.12-0.3v-1.73c0-0.12 0.04-0.22 0.12-0.3c0.08-0.08 0.19-0.12 0.32-0.12h0.88c0.12 0 0.22 0.04 0.3 0.12c0.08 0.08 0.12 0.18 0.12 0.3V82.09zM63.64 80.37c0-0.36-0.12-0.66-0.39-0.91c-0.26-0.25-0.57-0.39-0.92-0.39h-0.88c-0.36 0-0.68 0.12-0.92 0.39c-0.26 0.25-0.39 0.55-0.39 0.91v1.73c0 0.33 0.11 0.62 0.35 0.87c0.22 0.25 0.5 0.39 0.83 0.43h1.02c0.36 0 0.66-0.12 0.92-0.39c0.26-0.26 0.39-0.57 0.39-0.93v-1.73V80.37zM70.19 80.37v0.22c0 0.14 0.06 0.21 0.14 0.21h0.19c0.1 0 0.15-0.07 0.15-0.21v-0.22v-0.01c0-0.35-0.14-0.65-0.4-0.91c-0.26-0.25-0.57-0.39-0.93-0.39h-0.44h-0.43c-0.36 0-0.68 0.12-0.93 0.39c-0.26 0.25-0.39 0.55-0.39 0.91v2.81c0 0.15 0.06 0.22 0.15 0.22h0.58c0.1 0 0.15-0.07 0.15-0.22v-0.44v-0.01v-2.36c0-0.1 0.03-0.19 0.1-0.28l0 0c0 0 0 0 0-0.01l0 0c0 0 0 0 0-0.01c0 0 0 0 0-0.01l0 0l0 0v-0.01l0 0l0 0v-0.01v-0.01l0 0l0 0v-0.01l0 0c0 0 0 0 0-0.01l0 0l0 0V79.94l0 0l0 0v-0.01l0 0l0 0v-0.01l0 0l0 0c0 0 0 0 0-0.01l0 0l0 0c0 0 0 0 0.01 0l0 0l0 0v-0.01l0 0l0 0v-0.01l0 0l0 0c0 0 0 0 0-0.01l0 0l0 0c0 0 0.01 0 0.01-0.01h0.01h0.01c0 0 0.01 0 0.01-0.01h0.01h0.01h0.01v-0.01l0 0h0.01l0 0l0 0l0 0l0 0l0 0h0.01h0.01h0.01h1.27c0.12 0 0.22 0.04 0.3 0.12c0.08 0.08 0.12 0.18 0.12 0.3L70.19 80.37zM31.37 61.78c0.46-0.1 0.83-0.17 1.13-0.21c0.29-0.03 0.48-0.06 0.58-0.06c0.4 0 0.62 0.24 0.66 0.72l0.06 0.86c0.59-0.23 1.19-0.47 1.78-0.66c0.59-0.21 1.16-0.39 1.7-0.54c0.54-0.14 1.04-0.26 1.5-0.35c0.46-0.08 0.84-0.12 1.16-0.12c0.88 0 1.6 0.17 2.17 0.48c0.57 0.33 1.01 0.79 1.31 1.38c1.41-0.64 2.69-1.11 3.82-1.42c1.13-0.3 2.08-0.46 2.84-0.46s1.41 0.12 1.96 0.36C52.6 62 53.05 62.33 53.39 62.76c0.35 0.43 0.59 0.94 0.76 1.55c0.17 0.61 0.26 1.27 0.25 2.02l-0.1 9.36c-0.36 0.91-3.52 0.8-3.52 0.8l0.07-8.21v-0.3c0-0.72-0.05-1.73-0.17-2.27c-0.11-0.54-0.3-1-0.57-1.36c-0.26-0.37-0.61-0.64-1.05-0.83c-0.43-0.18-0.97-0.28-1.6-0.28c-0.11 0-0.28 0.03-0.5 0.06c-0.22 0.03-0.5 0.08-0.8 0.15c-0.32 0.07-0.66 0.18-1.05 0.3c-0.39 0.14-0.79 0.3-1.2 0.51c0.14 0.48 0.21 1.11 0.19 1.88l-0.08 9.52c-0.32 0.94-3.53 0.83-3.53 0.83l0.07-8.21v-0.3c0-1.43-0.23-2.88-0.72-3.64c-0.48-0.75-1.31-1.12-2.51-1.12c-0.22 0-0.65 0.07-1.28 0.21c-0.64 0.14-1.37 0.39-2.22 0.77v9.11v2.2c0 1.11-3.56 0.98-3.56 0.98v-3.17V65.35c0-0.71-0.11-1.19-0.35-1.45c-0.22-0.26-0.58-0.39-1.08-0.39c-0.12 0-0.26 0-0.41 0c-0.14 0.01-0.3 0.03-0.51 0.07C27.71 62.76 30.15 62 31.38 61.77L31.37 61.78zM70.97 74.88c-2.25 0.79-3.06 2.02-6.38 2.02c-1.08 0-2.03-0.21-2.86-0.61c-0.83-0.4-1.53-0.94-2.1-1.62c-0.57-0.68-0.99-1.45-1.28-2.32c-0.29-0.88-0.44-1.8-0.44-2.74c0-1.22 0.22-2.34 0.68-3.35c0.46-1.01 1.08-1.87 1.85-2.57c0.79-0.72 1.68-1.27 2.72-1.66c1.05-0.39 2.14-0.58 3.3-0.58c0.76 0 1.44 0.11 2.02 0.35c0.58 0.23 1.08 0.55 1.48 0.95c0.4 0.4 0.7 0.9 0.93 1.47c0.21 0.57 0.32 1.2 0.32 1.88c0 4-6.57 2.53-9.73 2.7c0.06 0.84 0.22 1.6 0.51 2.3c0.28 0.69 0.68 1.29 1.19 1.8c2.48 2.46 5.72 0.94 7.83 2.01L70.97 74.88zM67.67 66.04c0-0.37-0.05-0.73-0.17-1.06c-0.11-0.33-0.28-0.62-0.5-0.87c-0.22-0.25-0.48-0.44-0.8-0.58c-0.32-0.14-0.68-0.21-1.08-0.21c-0.63 0-1.19 0.11-1.64 0.36c-0.47 0.23-0.84 0.54-1.15 0.93s-0.52 0.83-0.68 1.36c-0.14 0.51-0.22 1.04-0.24 1.6c1.41-0.1 6.23 0.62 6.23-1.51L67.67 66.04zM43.59 77.74c0.22 0 0.4 0.18 0.4 0.4c0 0.22-0.18 0.4-0.4 0.4c-0.22 0-0.4-0.18-0.4-0.4C43.19 77.92 43.37 77.74 43.59 77.74z"/>
<path fill="#FFF212" d="M57.23 6.86l5.69 1.45c0.04 0.01 0.07 0.07 0.05 0.12v0.07l-0.46 2.01l-0.41 1.8l2.17 0.97l2.02 1.13l1.17-1.38l1.33-1.56l0.1-0.08c0.08-0.08 0.28-0.04 0.36 0.01l4.32 3.43c0.05 0.07 0.07 0.19 0.03 0.28l-0.06 0.12l-1.2 1.67l-0.99 1.38l1.53 1.62l1.35 1.73l1.5-0.76l1.82-0.94l0.17-0.05c0.15-0.06 0.37 0.08 0.44 0.21l2.69 4.88c0.04 0.11-0.01 0.26-0.11 0.35l-0.14 0.12l-1.75 1.08l-1.37 0.84l0.75 1.98l0.55 2.09l1.6-0.11l2.04-0.14l0.18 0.01c0.12 0.01 0.23 0.11 0.29 0.22c0.32 0.75 0.39 2.05 0.47 2.84c0.08 0.8 0.29 2.07 0.15 2.86c-0.01 0.11-0.11 0.22-0.22 0.26l-0.17 0.06l-2.03 0.3l-1.67 0.25l-0.1 2.21l-0.3 2.2l1.62 0.55l1.95 0.66l0.12 0.07c0.11 0.06 0.17 0.26 0.14 0.37l-1.59 5.26c-0.04 0.07-0.12 0.12-0.21 0.11h-0.12l-1.99-0.5l-1.75-0.44l-0.99 2.1l-1.2 2.03l1.38 1.23l1.53 1.37l0.04 0.06c0.04 0.04 0.03 0.15-0.01 0.19l-3.45 4.07l-0.03-0.03l3.09-4.15c-0.82-1.02-2.04-1.65-3.04-2.5c-0.1-0.08-0.1-0.21-0.04-0.32l2.26-4.51c0.04-0.08 0.14-0.19 0.25-0.18h0.11l2 0.47l1.7 0.4l0.72-2.21l0.52-2.24l-1.63-0.53l-1.96-0.64l-0.12-0.07c-0.14-0.07-0.17-0.28-0.15-0.4l0.37-5.01c0.01-0.14 0.07-0.35 0.23-0.4l0.15-0.06l2.03-0.33l1.6-0.26l-0.05-0.89l-0.13-1.31l-0.18-1.3l-0.15-0.83l-1.59 0.12l-2.04 0.17l-0.19-0.01c-0.19-0.01-0.32-0.24-0.37-0.4l-1.52-4.76c-0.06-0.17-0.07-0.41 0.07-0.54l0.14-0.12l1.77-1.06l1.35-0.82l-0.97-1.95l-1.13-1.88l-1.45 0.72l-1.84 0.91l-0.15 0.04c-0.15 0.06-0.33-0.08-0.43-0.19l-3.22-3.85c-0.08-0.1-0.18-0.28-0.11-0.42l0.07-0.14l1.23-1.65l1.01-1.37l-1.71-1.51l-1.88-1.4l-1.15 1.3l-1.35 1.54l-0.08 0.07c-0.08 0.07-0.24 0.03-0.3-0.01l-4.46-2.36c-0.07-0.03-0.17-0.11-0.15-0.19v-0.08l0.51-1.99l0.47-1.83l-2.55-0.9L57.23 6.86z"/>
</svg>
