<?xml version="1.0" encoding="utf-8"?>
<svg xmlns="http://www.w3.org/2000/svg" version="1.1" width="100px" height="100px" viewBox="0 0 100 100">
<path fill="#E4B023" d="M86.16 19.76C79.27 8.22 64.64-1.24 44.76 0.13C39.64 0.49 34.24 1.64 30.13 3.29C18.17 8.09 8.73 18.46 5.85 31.39c-3.53 15.87 4.19 32.62-0.5 47.22c-0.6 1.88-1.66 4.12-2.83 5.99c-1.29 2.06-2.76 4.09-2.5 6.32c0.44 3.77 5.13 5.26 8.98 6.15c13.25 3.06 30.38 0.09 40.41-2.99c7.08-2.18 14.74-5.66 20.29-10.14c10.81-8.75 19.8-22.16 21.62-39.24C92.34 35.14 89.73 25.72 86.16 19.76zM61.55 40.21c5.81-0.61 7.37 7.79 2.33 9.64C57.08 52.35 54.09 40.99 61.55 40.21zM47.42 81.28c-4.4 3.02-12.05 3.21-16.79-0.67c-9.19-7.51-5.5-24.92 6.49-26.6c5.34-0.75 9.48 0.97 12.14 3.66c1.71 1.73 4.07 6.5 4.16 10.64C53.51 73.54 51.07 78.77 47.42 81.28zM66.21 77.79c-0.65 2.57-2.29 5.76-3.99 5.82c-4.3 0.15-5.15-10.45-5.16-14.63c-0-3.12 0.24-6.31 0.83-8.81c0.55-2.33 1.65-6.16 4.16-6.32c3.93-0.25 5.13 9.72 5.15 14.96C67.22 71.98 66.91 75 66.21 77.79zM38.61 60.99c-8.07 1.32-5.83 18.54 2.83 15.13C47.42 73.76 46.58 59.69 38.61 60.99z"/>
</svg>
