<?xml version="1.0" encoding="utf-8"?>
<svg xmlns="http://www.w3.org/2000/svg" version="1.1" width="1075px" height="100px" viewBox="0 0 21808 2029">
<line style="stroke:#7f99b2;stroke-width:17.63999939" y2="2029" x2="6873" y1="0" x1="6873"/>
<path fill="#003366" transform="matrix(28.222223,0,0,28.222223,-4.9200163e-5,0)" d="M8.2188,15.25c-4.3872,0.242-8.1876,2.353-8.1876,7.469v4.969c0,4.003,1.6826,6.163,3.3126,7.687,1.2755,1.205,2.2657,2.157,4.25,4,2.3031,2.161,2.7502,3.288,2.7502,6.406v3.875c0,1.099-0.5416,1.532-1.2502,1.532-0.7796,0-1.2188-0.469-1.2188-1.532v-7.781h-7.875v7.937c0,5.493,4.2749,7.532,9.0938,7.532,4.7482,0,9.1872-2.041,9.1872-7.782v-5.531c0-3.26-0.713-5.596-3.406-8.219v-0.031c-1.488-1.453-3.431-3.337-4.281-4.187-2.1262-2.055-2.719-3.132-2.719-5.719v-3.281c0-0.78,0.5101-1.219,1.2188-1.219,0.744,0,1.2502,0.51,1.2502,1.219v6.468h7.812v-6.374c0-5.351-4.314-7.438-9.0622-7.438-0.2968,0-0.5826-0.016-0.875,0zm31.25,0.062v41.344h6.969v-25.781c0-0.709,0.474-1.281,1.218-1.281s1.219,0.572,1.219,1.281v25.75h6.969v-27.344c0-4.464-2.647-6-4.844-6v0.031c-2.48,0-3.941,1.767-4.438,2.688h-0.124v-10.688h-6.969zm18.781,0v41.344h6.969v-41.344h-6.969zm56.56,0v41.344h6.91l0.06-2.312h0.16c0.35,0.886,1.57,2.718,4.12,2.718,2.94,0,5.13-2.575,5.13-6.437v-21.313c0-3.72-2.3-6-5.1-6-2.33,0-3.73,1.979-4.15,2.688h-0.16v-10.688h-6.97zm-16.779,8c-2.515,0-3.968,1.66-4.5,2.688h-0.125l-0.062-2.281h-6.938v32.937h7v-26.031c0-0.815,0.577-1.313,1.25-1.313s1.219,0.533,1.219,1.313v26.031h7.005v-26c0-0.85,0.58-1.312,1.21-1.312,0.64,0,1.25,0.497,1.25,1.312v26h6.97v-27.031c0-4.465-2.37-6.313-5.03-6.313s-4.25,1.983-4.78,3.188h-0.03c-0.36-1.169-1.85-3.188-4.439-3.188zm43.659,0c-4.43,0-8.13,2.477-8.13,7.438v18.906c0,4.961,3.73,7.406,8.13,7.406,4.36,0,8.22-2.445,8.22-7.406v-6.031h-6.97v6.719c0,0.886-0.62,1.344-1.22,1.344-0.71,0-1.19-0.529-1.19-1.344v-8.938h9.38v-10.625-0.031c0-4.89-3.69-7.438-8.22-7.438zm22.22,0c-2.34,0-3.77,1.767-4.44,2.688h-0.13l-0.15-2.281h-6.81v32.937h6.96v-26.031c0-0.815,0.48-1.313,1.22-1.313,0.71,0,1.19,0.498,1.19,1.313v10.75h6.97v-12.344c0-3.472-2.09-5.687-4.81-5.687v-0.032zm12.06,0c-2.52,0-4.88,1.953-4.88,5.532v19.656c0,3.756,2.18,5.969,4.91,5.969,2.59,0,3.86-1.733,4.28-2.407h0.22v7.25c0,0.78-0.51,1.25-1.22,1.25-0.57,0-1.19-0.399-1.19-1.25v-2.937h-7v1.813c0,5.137,3.3,7.437,8.19,7.437,4.82,0,8.22-2.3,8.22-7.437v-34.532h-6.88l-0.03,0.063-0.09,2.281h-0.19c-0.35-0.744-1.72-2.688-4.34-2.688zm22.06,0c-4.43,0-8.15,2.477-8.15,7.438v18.906c0,4.961,3.76,7.438,8.15,7.438,4.36,0,8.22-2.477,8.22-7.438v-6.031h-6.97v6.719c0,0.886-0.62,1.344-1.22,1.344-0.71,0-1.18-0.529-1.18-1.344v-8.938h9.37v-10.656c0-4.89-3.68-7.438-8.22-7.438zm22.19,0c-2.34,0-3.77,1.767-4.44,2.688h-0.12l-0.16-2.281h-6.84v32.937h7v-26.031c0-0.815,0.44-1.313,1.18-1.313,0.71,0,1.22,0.498,1.22,1.313v10.75h6.97v-12.344c0-3.472-2.08-5.687-4.81-5.687v-0.032zm-191.38,0.032c-4.429,0-8.156,2.481-8.156,7.406v18.906c0,4.961,3.762,7.406,8.156,7.406,4.606,0,8.218-2.551,8.218-7.406v-6.031h-6.968v6.719c0,0.708-0.475,1.312-1.219,1.312s-1.187-0.604-1.187-1.312v-20.438c0-0.638,0.514-1.156,1.187-1.156,0.638,0,1.219,0.518,1.219,1.156v6.25h6.968v-5.406c0-4.854-3.683-7.406-8.218-7.406zm38.812,0.375v27.406c0,3.65,2.245,5.937,4.938,5.937,2.728,0,3.981-2.01,4.406-2.718h0.125l0.156,2.312h6.781v-32.937h-7-0.031v26.031c0,0.815-0.474,1.312-1.219,1.312-0.708,0-1.187-0.462-1.187-1.312v-26.031h-6.969zm74.064,5.031c0.67,0,1.22,0.47,1.22,1.25v6.375h-2.41v-6.375c0-0.744,0.52-1.25,1.19-1.25zm56.34,0c0.68,0,1.22,0.47,1.22,1.25v6.375h-2.4v-6.375c0-0.744,0.51-1.25,1.18-1.25zm-75.12,0.594c0.67,0,1.22,0.387,1.22,1.344v19.093c0,0.78-0.48,1.313-1.22,1.313-0.64,0-1.19-0.427-1.19-1.313v-19.093c0-0.922,0.59-1.344,1.19-1.344zm56.34,0c0.71,0,1.22,0.506,1.22,1.25v17.062c0,0.886-0.55,1.344-1.22,1.344s-1.19-0.493-1.19-1.344v-17.062c0-0.851,0.55-1.25,1.19-1.25z"/>
<path fill="#6699cc" d="m7450,1582,0-1152,432,0c88,0,159,12,212,35s95,59,125,108c30,48,45,99,45,152,0,49-13,95-40,139-27,43-67,79-121,105,70,20,123,55,161,105,38,49,56,107,56,174,0,54-12,104-34,151-23,46-51,82-85,107s-76,44-126,57c-51,13-113,19-186,19h-440zm153-668,249,0c68,0,116-5,145-13,39-12,68-31,88-58s30-60,30-101c0-38-9-72-28-101-18-29-45-49-79-60s-93-16-175-16h-230v349zm0,533,287,0c49,0,84-2,104-6,35-6,64-17,88-31,24-15,43-36,58-64s23-61,23-97c0-43-11-80-33-112s-53-54-92-67-95-19-168-19h-267v398zm1455,135,0-124c-65,95-153,142-264,142-49,0-95-9-138-28s-74-43-95-71c-21-29-35-64-43-105-6-28-9-72-9-132v-517h142v462c0,74,3,124,9,149,9,37,28,66,57,87s64,32,106,32,82-11,119-32c37-22,63-52,79-89,15-37,23-92,23-163v-447h142v835h-127zm293-249,140-23c8,56,30,99,66,129s86,45,151,45,113-13,145-40c31-26,47-57,47-93,0-32-14-57-42-75-20-13-68-28-145-48-104-26-175-49-215-68s-70-46-91-79c-21-34-31-71-31-112,0-37,9-72,25-103,17-32,40-58,69-79,22-16,52-30,90-41s79-17,122-17c65,0,123,9,172,28,50,19,86,45,110,77,23,32,40,76,49,130l-138,19c-6-43-24-78-54-102s-72-36-127-36c-65,0-111,11-139,32s-42,47-42,75c0,18,6,35,17,50,12,15,30,28,54,38,14,5,56,17,125,36,100,27,170,49,209,65,40,17,71,42,93,74,23,32,34,73,34,121,0,47-14,91-41,133-28,42-67,74-119,97s-111,34-176,34c-108,0-191-23-248-67-57-45-93-112-109-200zm861-742,0-161,142,0,0,161-142,0zm0,991,0-835,142,0,0,835-142,0zm358,0,0-835,127,0,0,119c61-91,150-136,265-136,50,0,97,9,139,27s74,42,95,71,36,64,44,104c5,26,8,72,8,138v513h-142v-507c0-58-5-101-16-129s-31-51-58-68c-28-17-61-25-98-25-60,0-112,19-156,57s-65,111-65,218v456h-142zm1465-270,146,19c-23,85-65,151-128,198-62,47-142,71-238,71-122,0-218-38-290-113-71-75-107-180-107-316,0-140,36-249,108-326,72-78,166-116,281-116,111,0,202,38,273,114s106,183,106,320c0,8,0,21-1,38h-622c5,91,31,162,78,210,46,49,105,73,174,73,52,0,96-14,133-41s66-71,87-131zm-464-227,465,0c-6-70-24-123-53-158-45-54-103-82-175-82-65,0-119,22-164,65-44,43-68,102-73,175zm733,248,140-23c8,56,30,99,66,129s86,45,151,45,113-13,145-40c31-26,47-57,47-93,0-32-14-57-42-75-20-13-68-28-145-48-104-26-175-49-215-68s-70-46-91-79c-21-34-31-71-31-112,0-37,9-72,25-103,17-32,40-58,69-79,22-16,52-30,90-41s79-17,122-17c65,0,123,9,172,28,50,19,86,45,110,77,23,32,40,76,49,130l-138,19c-6-43-24-78-54-102s-72-36-127-36c-65,0-111,11-139,32s-42,47-42,75c0,18,6,35,17,50,12,15,30,28,54,38,14,5,56,17,125,36,100,27,170,49,209,65,40,17,71,42,93,74,23,32,34,73,34,121,0,47-14,91-41,133-28,42-67,74-119,97s-111,34-176,34c-108,0-191-23-248-67-57-45-93-112-109-200zm805,0,140-23c8,56,30,99,66,129s86,45,151,45,113-13,145-40c31-26,47-57,47-93,0-32-14-57-42-75-20-13-68-28-145-48-104-26-175-49-215-68s-70-46-91-79c-21-34-31-71-31-112,0-37,9-72,25-103,17-32,40-58,69-79,22-16,52-30,90-41s79-17,122-17c65,0,123,9,172,28,50,19,86,45,110,77,23,32,40,76,49,130l-138,19c-6-43-24-78-54-102s-72-36-127-36c-65,0-111,11-139,32s-42,47-42,75c0,18,6,35,17,50,12,15,30,28,54,38,14,5,56,17,125,36,100,27,170,49,209,65,40,17,71,42,93,74,23,32,34,73,34,121,0,47-14,91-41,133-28,42-67,74-119,97s-111,34-176,34c-108,0-191-23-248-67-57-45-93-112-109-200zm2147-155,153,39c-32,125-89,220-172,286s-184,99-304,99c-124,0-225-25-303-76-78-50-137-124-177-219-41-96-61-199-61-309,0-120,23-225,69-314s111-157,196-204c84-46,178-69,279-69,115,0,212,29,291,88s133,141,164,247l-150,35c-27-84-65-145-116-183s-115-57-192-57c-88,0-162,21-222,64-59,42-101,100-125,171-24,72-36,145-36,221,0,98,14,183,43,256,28,73,73,128,133,164s125,54,195,54c85,0,157-25,216-74s99-122,120-219zm271-13c0-154,43-269,129-343,72-62,159-93,263-93,115,0,208,38,281,113s109,179,109,311c0,107-16,192-48,253s-79,109-141,143c-61,34-129,51-201,51-117,0-211-37-284-112-72-75-108-183-108-323zm145,0c0,107,23,187,70,240s106,80,177,80c70,0,129-27,176-80s70-135,70-244c0-103-24-181-71-234s-105-80-175-80c-71,0-130,26-177,79s-70,133-70,239zm803,417,0-835,127,0,0,119c61-91,150-136,265-136,50,0,97,9,139,27s74,42,95,71,36,64,44,104c5,26,8,72,8,138v513h-142v-507c0-58-5-101-16-129s-31-51-58-68c-28-17-61-25-98-25-60,0-112,19-156,57s-65,111-65,218v456h-142zm839-249,140-23c8,56,30,99,66,129s86,45,151,45,113-13,145-40c31-26,47-57,47-93,0-32-14-57-42-75-20-13-68-28-145-48-104-26-175-49-215-68s-70-46-91-79c-21-34-31-71-31-112,0-37,9-72,25-103,17-32,40-58,69-79,22-16,52-30,90-41s79-17,122-17c65,0,123,9,172,28,50,19,86,45,110,77,23,32,40,76,49,130l-138,19c-6-43-24-78-54-102s-72-36-127-36c-65,0-111,11-139,32s-42,47-42,75c0,18,6,35,17,50,12,15,30,28,54,38,14,5,56,17,125,36,100,27,170,49,209,65,40,17,71,42,93,74,23,32,34,73,34,121,0,47-14,91-41,133-28,42-67,74-119,97s-111,34-176,34c-108,0-191-23-248-67-57-45-93-112-109-200zm1407,249,0-124c-65,95-153,142-264,142-49,0-95-9-138-28s-74-43-95-71c-21-29-35-64-43-105-6-28-9-72-9-132v-517h142v462c0,74,3,124,9,149,9,37,28,66,57,87s64,32,106,32,82-11,119-32c37-22,63-52,79-89,15-37,23-92,23-163v-447h142v835h-127zm346,0,0-1152,142,0,0,1152-142,0zm668-126,19,125c-40,8-75,13-106,13-51,0-91-8-119-24s-48-38-60-64c-12-27-17-82-17-167v-481h-105v-109h105v-207l142-85v292h142v109h-142v489c0,41,2,67,8,78,5,12,13,21,24,28s27,10,48,10c16,0,36-2,62-6zm140-865,0-161,142,0,0,161-142,0zm0,991,0-835,142,0,0,835-142,0zm358,0,0-835,127,0,0,119c61-91,150-136,265-136,50,0,97,9,139,27s74,42,95,71,36,64,44,104c5,26,8,72,8,138v513h-142v-507c0-58-5-101-16-129s-31-51-58-68c-28-17-61-25-98-25-60,0-112,19-156,57s-65,111-65,218v456h-142zm869,69,137,19c6,42,22,73,48,93,35,26,83,39,144,39,65,0,116-13,152-39s60-63,72-110c7-29,11-89,10-181-62,73-139,109-231,109-115,0-204-41-267-124s-94-182-94-297c0-80,14-153,43-220s71-119,125-156c55-37,119-55,193-55,98,0,180,40,244,121v-103h130v721c0,130-13,222-40,276-26,54-68,97-126,128-57,31-128,47-212,47-100,0-180-22-241-67s-91-112-89-202zm116-501c0,109,22,189,65,239,44,50,98,75,164,75,65,0,120-25,164-75s66-128,66-235c0-102-23-179-68-231s-100-78-164-78c-63,0-116,25-161,76-44,51-66,127-66,227z"/>
</svg>
