<?xml version="1.0" encoding="utf-8"?>
<svg xmlns="http://www.w3.org/2000/svg" version="1.1" width="560px" height="100px" viewBox="0 4 560 100">
<path fill="#E35F24" d="M4.47 54.93l9.28-0.8c-0-0.13 0-0.27 0-0.4l0-0.12l0.01-0.35v-0.02v-0.01v-0.01c0.01-0.14 0.01-0.27 0.01-0.41l0-0.01l0-0.01c0-0.13 0.01-0.27 0.02-0.4l0-0.03l0-0.01c0.01-0.09 0.01-0.18 0.02-0.27h0l0-0.01l0.01-0.09l0-0.01l0-0.05l0-0.05l0.03-0.29L13.88 51.46l0.01-0.1l0.02-0.21l0.01-0.09l0-0.01l0.04-0.35l0.02-0.17l0.02-0.19l0.02-0.1l0.01-0.1l0.02-0.13l0-0.02l0.01-0.04l0.02-0.1l0-0.01l0.02-0.12l0.05-0.28l0.02-0.12l0.01-0.07l0.02-0.13l0.02-0.09l0.03-0.13l0.02-0.1l0.01-0.05l0.04-0.18l0.01-0.04l0.02-0.08l0.02-0.09l0.01-0.04l0.04-0.16l0.02-0.08c0.07-0.3 0.15-0.59 0.23-0.89l0.02-0.09l0-0.01l0.03-0.1l0.06-0.2l0.03-0.1l0-0l0.03-0.09l0.09-0.29l0.01-0.02c0.04-0.13 0.09-0.27 0.13-0.4l0-0.01l0.02-0.05c0.09-0.25 0.18-0.5 0.27-0.75l0.01-0.02c0.2-0.53 0.43-1.06 0.67-1.57l-7.8-8.47c-1.42 1.68-3.32 1.88-4.65 0.36c-0.23-0.27-0.44-0.57-0.61-0.9C1.16 39.77 0.11 45.56-0 51.51c0.25-0.13 0.51-0.22 0.78-0.26C2.36 51.05 3.86 52.6 4.47 54.93zM15.13 62.39l-0.05-0.14h-0l-0.07-0.23l-0-0.01l-0.04-0.11l-0.04-0.12l-0-0.01l-0.05-0.16l-0.02-0.06l-0.04-0.13l-0.01-0.02l-0.03-0.12l-0-0.01l-0.04-0.12l-0-0l-0.06-0.2l-0-0.01l-0-0.01l-0-0.01l-0-0.01l-0-0.01l-0-0.01l-0-0.01l-0-0.01L14.66 60.85l-0-0.01l-0-0.01l-0-0.01l-0-0.01l-0.01-0.03l-0-0.01l-0-0.01l-0-0.01l-0-0.01l-0-0.01l-0.01-0.03l-0-0.01l-0.02-0.08l-0-0.01l-0.01-0.03l-0-0.01l-0-0.01l-0-0.02l-0.01-0.02L14.56 60.49l-0-0.01l-0-0.01l-0.01-0.03l-0-0l-0-0.01l-0.01-0.03l-0-0.01l-0.01-0.03l-0-0.01l-0.02-0.06l-0-0.01l-0-0.01l-0-0.01l-0.03-0.14l-0-0.01l-0-0.01l-0-0.01l-0-0l-0-0.01h-0l-0.01-0.02l-0-0.01c-0.05-0.2-0.09-0.4-0.14-0.6l-0-0.01l-0.03-0.14l-0-0.01l-0-0.01l-0-0.01l-0-0.01l-0-0.01l-0-0.01l-0.05-0.24l-0-0l-0.01-0.04l-0-0.01l-0-0.02v-0l-0-0.01l-0-0.02l-0-0.01l-0-0.02L14.2 58.85L14.2 58.85l-0-0.01l-0-0.01l-0-0.01v-0l-0-0.01l-0-0.01l-0.01-0.08l-0.03-0.18l-0-0.01l-0.01-0.08l-0.01-0.05l-0-0l-0-0.01c-0.02-0.13-0.04-0.27-0.06-0.4v-0l-0-0.01l-0-0.01l-0-0.01l-0.04-0.24l-0.01-0.06l-9.3 0.48C4.43 60.54 3.16 62.28 1.57 62.29c-0.28 0-0.55-0.05-0.81-0.15c0.97 5.87 2.83 11.46 5.41 16.48c0.12-0.35 0.28-0.68 0.47-0.97c1.1-1.69 3.01-1.76 4.66-0.29l6.51-9.45C16.67 66.19 15.78 64.33 15.13 62.39zM46.93 43.94l0.01 0.01l0.01 0.02l0.02 0.04l0.05 0.1l0.09 0.19l0.1 0.21l0 0.01l0.02 0.02l0.05 0.11l0.08 0.17l0.01 0.02l0.07 0.16l0.04 0.08l0.08 0.19l0.04 0.09l0.07 0.19l0.03 0.07l0.08 0.19l0.05 0.15l0 0l0.04 0.09l0.15 0.41l0.01 0.03l0 0.01l0.01 0.04c0.12 0.33 0.23 0.66 0.33 1l0.02 0.06v0c0.11 0.36 0.22 0.73 0.31 1.1l0.01 0.02l0.01 0.03c0.09 0.36 0.18 0.73 0.26 1.1l0 0.02l0.01 0.04c0.07 0.35 0.14 0.71 0.2 1.08l0.02 0.07l21.14-1.83c1.03-4.24 5.15-7.83 10.61-8.55c1.2-0.16 2.37-0.17 3.52-0.05c-2.85-11.17-8.75-20.35-16.31-26.78c-0.42 0.93-0.95 1.85-1.62 2.72c-3.08 4.06-7.79 5.92-11.42 5L43.06 38.38C44.62 40 45.92 41.88 46.93 43.94zM9.71 32.07l8.05 8.41c1.01-1.48 2.17-2.75 3.44-3.81l0.02-0.02l0-0l0.03-0.03l0.28-0.22l0.01-0.01l0.27-0.21c0.62-0.47 1.27-0.9 1.94-1.28l0.03-0.02c0.45-0.25 0.9-0.47 1.38-0.68h0l0.13-0.05l0.01-0l0.03-0.01c0.17-0.07 0.34-0.14 0.51-0.2l-1.18-16.36c-2.34 0.07-4.14-1.91-4.37-5.05c-0.04-0.56-0.03-1.13 0.03-1.69c-5.21 3.61-9.45 8.35-12.65 13.61c0.28 0.14 0.56 0.34 0.82 0.59C9.96 26.5 10.42 29.43 9.71 32.07zM82.47 61.74c-5.51 0.04-10.1-2.95-11.73-7.01l-21.2 1.09c-0.01 0.2-0.01 0.38-0.02 0.57l-0 0.03l-0 0.05l-0 0.01l-0.03 0.49l-0.01 0.11l-0.04 0.5l-0 0.01l0 0.01l-0 0.01c-0.02 0.19-0.03 0.36-0.05 0.54l-0 0.04l-0 0.01L49.32 58.72l-0.01 0.05l-0.01 0.01L49.25 59.23l-0.03 0.18l-0.02 0.13l-0.01 0.03l-0.04 0.24l-0.02 0.12l-0 0.02l-0.07 0.37l-0.08 0.38l-0.04 0.18l-0 0.01l-0.03 0.13l-0.03 0.12l-0.03 0.14l-0.02 0.1l-0.01 0.04l-0.03 0.13l-0.05 0.17L48.65 62.1l-0.04 0.12l-0.03 0.1l-0.03 0.12l-0.01 0.02l-0.01 0.01l-0.01 0.03l-0 0.01l-0.01 0.02l-0 0.01l-0.01 0.01l-0.01 0.02v0l-0 0l-0 0.01l-0 0.01l-0 0.01l-0.01 0.03h-0l-0 0.01l-0 0.01h-0l-0.01 0.03l-0.01 0.01l-0 0.01l-0.01 0.02l-0 0.01l-0.01 0.03l-0 0.01v0l-0.01 0.01l0 0l-0 0.01l-0.01 0.01l-0.01 0.01l-0.01 0.03l-0 0.01l-0.01 0.01l-0 0.01l-0 0.01l-0.01 0.04l-0 0l-0.01 0.01l0 0.01l-0 0.01l-0 0.01l-0.01 0.01l-0 0.02l-0.01 0.01l-0 0.01l-0.01 0.03l-0.01 0.01l-0.01 0.01l-0.01 0.01l-0.02 0.05l-0 0.01l-0 0L48.3 63.22l-0 0.01l-0.01 0.01l-0 0.02l-0 0.01l-0.01 0.01l0 0.02l-0.13 0.38l-0.04 0.12l-0.16 0.44l-0.01 0.03l-0.07 0.19l-0.03 0.08l-0.07 0.19l-0 0.01l-0 0.01l-0.02 0.04l-0.02 0.04l-0 0.01l-0 0.01l-0.01 0.01l-0 0.01l-0 0l-0 0.01l-0.01 0.03l0 0l-0 0l-0 0l-0.14 0.32l-0.03 0.08l-0.18 0.39h-0l-0.01 0.02l-0 0l-0.01 0.02h-0c-0.14 0.31-0.3 0.62-0.45 0.92h-0l-0.04 0.07l-0 0.01c-0.23 0.44-0.48 0.87-0.74 1.29l-0.04 0.07l-0.01 0.02l-0.24 0.37l-0 0.01l-0.04 0.07l-0 0l-0.09 0.13l-0.04 0.07l-0.02 0.02l-0.03 0.04l-0 0.01l-0.24 0.34l-0.04 0.05L59.62 84.2c3.47-1.4 8.39-0.21 12.02 3.38c0.78 0.77 1.44 1.6 1.98 2.45c6.56-7.39 11.08-17.29 12.32-28.74C84.83 61.58 83.67 61.73 82.47 61.74zM58.57 97.99c-3.06-3.49-3.86-7.83-2.28-10.82L42.57 72.26l-0.08 0.06l-0.26 0.23l-0.04 0.03c-0.12 0.1-0.24 0.2-0.36 0.3l-0.01 0.02l-0.02 0.01l-0.01 0.01l-0.29 0.22l-0.06 0.05l-0.01 0.01l-0.08 0.05l-0.02 0.02l-0.09 0.07l-0.11 0.08l-0.01 0.01l-0.27 0.19l-0.07 0.04l-0.22 0.14l-0.12 0.08l-0.08 0.05c-0.34 0.22-0.7 0.43-1.05 0.62l-0.02 0.01l-0.01 0l-0.1 0.05L39 74.71h-0l-0.13 0.06l-0.07 0.04l-0.14 0.08l-0.03 0.01c-0.42 0.2-0.85 0.38-1.28 0.54l-0.09 0.04l-0.09 0.04l-0.03 0.01l-0.16 0.05l-0.09 0.04l-0.04 0.01l-0.15 0.05l-0.05 0.02l-0.01 0l-0.31 0.1l-0.09 0.02l-0.01 0h-0c-1.18 0.34-2.4 0.53-3.64 0.56l-0.06 0l-0.09-0l-0.22 0l1.19 16.55c2.7 1.57 4.92 5.01 5.17 8.49c0.05 0.73 0.01 1.4-0.11 2.01c7.56 1.17 15.21 0.01 22.24-3.44C59.94 99.4 59.23 98.74 58.57 97.99zM28.65 75.94l-0.02-0.01l-0.06-0.01l-0.06-0.02l-0.12-0.03l-0.01-0l-0.2-0.05l-0.01-0l-0.31-0.09l-0.07-0.02l-0.33-0.1l-0.05-0.02l-0.04-0.01l-0.29-0.1l-0.01-0l-0.03-0.01l-0.01-0l-0.3-0.11L26.59 75.29l-0.01-0l-0.09-0.04l-0.1-0.04l-0.04-0.02l-0.14-0.06l-0.02-0.01l-0.1-0.04l-0.13-0.05l-0.15-0.07l-0.01-0l-0.09-0.04l-0.09-0.04l-0.02-0l-0.16-0.08l-0.01-0.01l-0.09-0.05l-0.09-0.04c-1.84-0.92-3.58-2.21-5.13-3.85L20.12 70.83l-0.19-0.21l-6.77 9.43c1.08 2.52 1.05 5.48-0.21 7.14c-0.22 0.29-0.46 0.51-0.72 0.69c3.94 4.79 8.83 8.91 14.53 11.77c-0.18-0.65-0.3-1.31-0.35-1.97c-0.23-3.14 1.27-5.36 3.6-5.61l-1.16-16.09L28.65 75.94zM34.84 33.44l0.04 0.01l0.3 0.08l0.06 0.02l0.06 0.02l0.06 0.02l0.02 0l0.16 0.05c0.26 0.08 0.52 0.17 0.78 0.26l0.07 0.03c0.16 0.06 0.31 0.12 0.46 0.18l0.01 0l0.04 0.01l0 0l0.13 0.05l0 0l0.04 0.02l0 0l0.01 0.01l0 0l0.02 0.01l0.01 0l0 0.01l0.01 0l0 0h0.01l0.01 0.01l0.01 0l0 0l0.01 0l0.01 0l0.07 0.03l0.01 0l0.33 0.14l0.01 0.01c0.79 0.37 1.57 0.8 2.34 1.32l11.46-16.65c-1.99-2.75-1.82-7.15 0.71-11.03c0.54-0.83 1.16-1.59 1.83-2.27C46.5 3.36 38.79 3.26 31.49 5.44c0.16 0.52 0.26 1.09 0.31 1.71c0.25 3.47-1.45 7.2-3.9 9.12l1.21 16.83l0.15-0.02l0.08-0.01l0 0c0.28-0.04 0.56-0.06 0.83-0.08l0.08-0.01l0.23-0.01l0.08-0h0.08l0.16-0.01l0.15-0l0.08 0l0.08-0l0.08 0h0.23l0.08 0c0.13 0.01 0.25 0.01 0.38 0.02l0.08 0c0.98 0.06 1.94 0.2 2.9 0.45L34.84 33.44z"/>
<path fill="#0088C0" d="M153.63 16.75l-21.2 56.45l-10.42-51.65c-0.54-3.8-4.25-4.81-6.86-4.81H99.99l18.39 74.27h19.19c4.07-0.06 5.63-0.88 7.14-4.46l29.24-69.81h-13.17H153.63zM338.08 76.09l5.21-59.34h-13.05c-3.75 0-5.73 0.25-6.25 5.1l-6.05 69.17h53.66l1.29-14.93h-22.57H338.08zM401.77 16.75h-1.63c-3.75 0-5.73 0.25-6.25 5.1l-5.95 68l-0.1 1.13h0l-0 0.04l0.05-0.04h20.71l6.44-74.23h-1.86H401.77zM478.98 22.24l-3.64 44.92l-20.9-50.41h-23.35l-6.01 68.73c-0.26 3.03 0.39 5.15 2.96 5.5h14.75l3.08-50.73l13.95 32.89l5.3 12.99c1.45 3.94 3.73 4.73 6.29 4.85h19.62l6.49-74.23h-11.75C483.18 16.75 479.51 17.32 478.98 22.24zM525.79 51.31l30.46-34.56h-17.28c-6.65 0-6.69 0.17-11.11 5.16l-27.39 29.43l23.35 35.26c2.52 3.41 3.36 4.2 7.47 4.39h20.59l-16.92-25.72L525.79 51.31zM197.28 16.73h-1.62c-3.75 0-5.73 0.25-6.25 5.1l-5.95 68l-0.1 1.13h0l-0 0.04l0.05-0.04h20.66l6.49-74.23h-1.86H197.28zM258.22 16.75c-4.07 0.06-5.63 0.88-7.14 4.46l-31.26 69.81h16.21h7.14l22.22-56.45l11.43 51.65c0.54 3.8 4.25 4.81 6.86 4.81h18.21l-20.42-74.27H258.22z"/>
</svg>
